<svg xmlns="http://www.w3.org/2000/svg" xmlns:xlink="http://www.w3.org/1999/xlink" width="223" height="228" viewBox="0 0 223 228">
  <defs>
    <clipPath id="clip-path">
      <rect id="Rectangle_225" data-name="Rectangle 225" width="223" height="228" transform="translate(-7843 -8538)" fill="#000000" stroke="#707070" stroke-width="1"/>
    </clipPath>
  </defs>
  <g id="Mask_Group_40" data-name="Mask Group 40" transform="translate(7843 8538)" clip-path="url(#clip-path)">
    <g id="Layer_2" data-name="Layer 2" transform="translate(-7803.199 -8538)">
      <g id="Luggage" transform="translate(0 0)">
        <path id="Path_1050" data-name="Path 1050" d="M129.08,127.957a1.271,1.271,0,0,0-1.016.21,1.122,1.122,0,0,0-.469.875c0,3.627-2.85,26.7,1.607,29.932a1.12,1.12,0,0,0,.754,1.006,1.234,1.234,0,0,0,1.277-.264,22.067,22.067,0,0,0,6.821-18.593C137.265,136.354,134.446,129.528,129.08,127.957Zm1.273,29.332c-2-2.656-.818-12.138-.788-14.281,0-4.056.364-8.111.485-12.138,3.547,2.114,5,7.569,5.729,11C136.841,147.179,133.749,153.062,130.354,157.289Z" transform="translate(0.07 -7.404)" fill="#000000"/>
        <path id="Path_1051" data-name="Path 1051" d="M142.661,141.549c1.97-7.74-.758-14.852-3.911-21.935a.646.646,0,0,0,0-.228c.061-19.422,6.518-42.27-2.334-60.664-4.668-9.568-16.4-12.024-28.132-12.424,0-11.91.152-23.82.243-35.7h0a5.891,5.891,0,0,0,3.638-3.484c.606-2.114-1.607-4.227-3.426-5.055a9.608,9.608,0,0,0-6.821-.371.894.894,0,0,0-.424-.228A68.142,68.142,0,0,0,82.972.543C77.333.8,71.452-.285,65.9.143a.86.86,0,0,0-.94,0,9.685,9.685,0,0,0-1.97,1.6C59.478.8,53.9,1.485,53.445,5.484c-.3,2.142,1.425,3.57,3.547,4.256-1.546,3.656,0,9.311.182,13.138.364,7.083,0,14.109,0,21.164a1.13,1.13,0,0,0,0,.343,49.706,49.706,0,0,0-24.616,5.141.74.74,0,0,0-.455.685c-6.427.514-11.429,1.571-12.126,3.6a26.417,26.417,0,0,0-4.82,2.142C5.608,61.406.515,73.716,1.243,83.913a.808.808,0,0,0,0,.286A93.181,93.181,0,0,0,0,98.85c-.455,16.565,1.425,33.159,2.455,49.668a199.84,199.84,0,0,1,.576,23.334c-.576,8.083-2.061,16.051-2,24.163a.925.925,0,0,0-.637.771c-1.334,6.54.637,10.625,7.791,11.939q5.534.99,11.156,1.428a8.264,8.264,0,0,0,3.79,6.445,9.339,9.339,0,0,0,7.729,1.124,1.477,1.477,0,0,0,.515-.286c2.85-.343,4.638-3.2,5.426-5.712a89.588,89.588,0,0,1,11.671,2.028,308.6,308.6,0,0,0,30.921,7.226,5.229,5.229,0,0,0,3.031,5.141,13.831,13.831,0,0,0,3.4,1.114,14.027,14.027,0,0,0,4.153.771,1.08,1.08,0,0,0,.909-.457c3.426.6,6.063-3.227,6.912-5.941v-.171a32.45,32.45,0,0,0,18.735-8.568,7.781,7.781,0,0,0,7.942-4.912c6.4-2.4,22.888-12.338,13.066-17.708a12.2,12.2,0,0,0,.788-3.884c.182-4.4-.879-8.94-1-13.367-.182-6.769.818-13.424.333-20.193q.485-.743.909-1.457a36.085,36.085,0,0,0,4.093-9.8Zm-7.215-78.714c3.668,9.082,2.789,19.707,2.122,29.189-.485,7.34-1.061,14.595-1.273,21.878a38.106,38.106,0,0,1-3.88-15.166,1.139,1.139,0,0,0-.375-.838,1.285,1.285,0,0,0-.9-.333,7,7,0,0,0-3.971.628V94.052c0-8.94,1.091-20.621-2.728-29.018s-11.459-11.424-20.584-13.052c-1.758-.286-20.735-1.971-21.22,0a1.16,1.16,0,0,0,0-.657,44.366,44.366,0,0,0,4.941-2.856h.152C104.344,51.239,127.656,43.67,135.447,62.835ZM47.261,117.1c5.305.228,7.185-4.884,7.124-9.4a3.217,3.217,0,0,1,.728,0,26.439,26.439,0,0,1,0,7.255c-.546,2.856-3.88,2.856-6.366,2.656-3.365-.2-9.094-.514-10.792-3.656a14.807,14.807,0,0,1-.152-8.283h1.152a1.155,1.155,0,0,0,.637,0C38.833,110.988,40.106,116.786,47.261,117.1Zm-4.82-13.252a1.428,1.428,0,0,0,.728-.343,64.228,64.228,0,0,0,8.428.828c.333,3.427,1.182,9.254-3.456,10.339a5.375,5.375,0,0,1-3.957-.8,4.793,4.793,0,0,1-2.106-3.256A13.915,13.915,0,0,1,42.441,103.848Zm9.094-1.6-1.88-.286a.971.971,0,0,0,.3-.685c0-3.656-.637-7.283-.909-10.91a1.043,1.043,0,0,0-2.031,0c-.182,3.627.546,7.255.637,10.91a2.691,2.691,0,0,0,0,.4c-1.516-.228-3.031-.428-4.578-.543C40.925,95.851,41.683,89.453,42.2,84a37.728,37.728,0,0,1,5.063-17.565c3.88-5.912,10.883-9.854,16.976-13.424l8.155-4.456c2.85-1.657,8.215-1,12.368-.628-9.094,5.712-20.22,8.568-27.981,16.28C46.321,74.545,52.808,89.511,51.535,102.249Zm54.2-55.98h-1.789a142.853,142.853,0,0,0,.364-17.708,92.222,92.222,0,0,0-.424-16.88,16.129,16.129,0,0,0,2.395-.543C105.647,22.849,105.738,34.559,105.738,46.269Zm1.334-42.356c.97.257,3.031,1.714,2.546,2.856s-2.365,1.6-3.517,1.942a19.212,19.212,0,0,1-3.82.6,29.9,29.9,0,0,0,0-5.712,15,15,0,0,1,4.79.314Zm-5.79,7.769h.455a211.812,211.812,0,0,1-.243,34.53c-4.517,0-8.822.371-12.49.514a1.009,1.009,0,0,0-1.061-.914c-4.426,0-10.731-1.457-14.976-.371a10.245,10.245,0,0,0-1.394.486l-.333-.143c-2.516-.457-5.093-.828-7.7-1.085.546-11,1.849-22.42,0-33.388a8.459,8.459,0,0,0,5.76-.257C78.091,8.2,89.307,12.681,98.19,12.11a5.841,5.841,0,0,0,2.637-.685Zm-36.1-9.311a.417.417,0,0,0,.273,0c5.608-.514,11.823.514,17.522.428,3.85,0,7.639-.314,11.459-.228,5.881,0,4.85.657,5.244,4.541S79.364,8.283,77.03,8.254a35.521,35.521,0,0,0-8.367.428C62.57,10.111,62.267,5.712,65.177,2.371ZM61.9,10.254a.539.539,0,0,0,0,.314c.515,11.424-.758,22.649-.485,34.016H59.841a.889.889,0,0,0,0-.428,191.926,191.926,0,0,0-.909-33.9,7.618,7.618,0,0,0,2.7,0,1.93,1.93,0,0,0,.273,0ZM55.84,5.512c.515-2,3.4-1.971,5.639-1.771a6.439,6.439,0,0,0-.849,4.17C58.75,7.883,55.355,7.569,55.84,5.512ZM68.33,47.669c-1.485.885-3.031,1.885-4.3,2.713h-.243c-2.546,0-16.218-.857-27.617-.343C46.079,45.9,57.75,45.983,68.33,47.669ZM43.441,51.81c5.639,0,11.307.543,16.946.657-1.334.8-2.7,1.628-3.971,2.485a.939.939,0,0,0-.576-.228c-9.943-1-21.493-3.713-31.709-1.885,5.032-2,16.37-1.057,19.311-1.028ZM2.819,117.1C2.183,104.562.576,89.311,6.063,77.429c6.063-13.681,23.646-6.826,35.5-8.311,1.182-.143,1.273-1.828,0-1.771-9.943.228-24.252-4.456-32.77,2.856a20.3,20.3,0,0,0-3.547,4.056A28.518,28.518,0,0,1,18.189,57.436c10.4-5.912,24.585-.885,36.1-1.057a43.633,43.633,0,0,0-9.276,8.74c-4.062,5.312-4.668,12.567-5.426,18.85a39.09,39.09,0,0,0,.879,17.565,1.347,1.347,0,0,0,0,.371c-.243.743-.424,1.542-.606,2.371a.94.94,0,0,0-.333-.228,4.793,4.793,0,0,0-2.334-.6,1.176,1.176,0,0,0-.952.184,1.038,1.038,0,0,0-.442.816c-.394,3.57-1.425,7.769.515,11.082s7.973,3.884,11.671,4.256c3.031.314,6.791.371,8.791-2.285s.97-7.74.758-10.8a1.209,1.209,0,0,0-1.213-1.142,5.4,5.4,0,0,0-2.031,0,13.583,13.583,0,0,0-.424-1.742,1.07,1.07,0,0,0-.455-.543c2.365-11.139-2.728-22.677,1.91-32.788A127.016,127.016,0,0,1,69.573,72.66c5.426.6,10.944.428,15.794,3.113,6.063,3.456,7.4,12.852,8.609,18.85a126.234,126.234,0,0,1,1.97,25.048c0,13.766-1.334,27.533-1.546,41.328-.273,16.08,1.394,32.16,1.485,48.24-12.126,1.257-25.161-2-36.832-5.055a53.985,53.985,0,0,0-14.218-1.2,61.494,61.494,0,0,1-17.916-3.256C19.4,197.586,10.64,200.842,3.7,196.672c-.182-12.6,2.152-25.02,1.819-37.672C5.032,145,3.547,131.1,2.819,117.1Zm21.645,97.593a6.587,6.587,0,0,1-3.031-4.341l3.82.314a5.467,5.467,0,0,0,1.213,4.655,5.817,5.817,0,0,1-2-.628Zm6.305.343c-2.274,0-3.031-2.428-3.031-4.17H29.1a.971.971,0,0,0,0,.514,2.161,2.161,0,0,0,1.94,1.828,2.072,2.072,0,0,0,1.94-2.028h1.031C33.558,213.009,32.649,214.951,30.77,215.036Zm54.112,9.482a4.381,4.381,0,0,1-3.335-3.256c1.394.171,2.759.314,4.123.4a3.605,3.605,0,0,0,.364,2.085,6.926,6.926,0,0,0,.667,1.114,15.667,15.667,0,0,1-1.819-.343Zm7.154.486c-1.91.628-3.638-1.485-3.85-3.17H90.4a1.074,1.074,0,0,0-.273.743,1.514,1.514,0,0,0,1.031,1.485,1.967,1.967,0,0,0,1.626-.361,1.728,1.728,0,0,0,.678-1.438,1.051,1.051,0,0,0,0-.514h1.7c-.788,1.285-1.546,2.77-3.092,3.256Zm24.04-15.337a1.127,1.127,0,0,0-1.152.686c-16.4,14.281-40.2,7.711-59.3,2.713a164.917,164.917,0,0,0-29.678-4.741c-4.3-.343-8.518-1.057-12.793-1.457-6.4-.6-11.307-1.457-10.64-8.568,6.063,3.684,13.914,2.628,20.766,3.056,5.608.371,10.58,3.513,16.218,3.742a105.181,105.181,0,0,1,22.766,2.228c17.552,4.541,40.986,8.94,55.385-4.655-.182,4.113-.667,7.026-1.546,7Zm1.394-29.1c0,1.657.485,11.424.273,19.164a1.668,1.668,0,0,0-.546.286A35.426,35.426,0,0,1,98.281,208.9c0-17.451-1.97-34.844-1.546-52.267s2.213-33.988,1.031-51.01c-.7-10.339-1.667-25.191-11.247-31.931-3.759-2.656-9.307-2.856-13.793-3.17-5.366-.4-10.883-2.313-16.309-2.285a21.026,21.026,0,0,1,3.031-3.884,40.176,40.176,0,0,1,11.216-7.426,1.078,1.078,0,0,0,.94.486c13.278.257,30.315-2.2,40.531,7.569,7.033,6.712,6.76,19.022,7.033,27.7.273,9.511-.546,19.05-1.031,28.561-.94,19.736-1.061,39.557-.637,59.321Zm5.457,25.534h0c.212-3.627,1.031-7.2,1.516-10.8a115.565,115.565,0,0,0-.576-23.106,1.135,1.135,0,0,0-2.213,0c0,8.568,1.425,17.137,0,25.7-.455,3.027-2.274,8.083-.546,10.91a5.535,5.535,0,0,1-2.274,1.485c3.031-5.341,1.637-21.421,1.576-24.106-.515-21.706-.606-43.356.394-65.062a311.356,311.356,0,0,0,.7-35.444c-.546-7.94-1.849-16.08-7.457-22.306-8.943-9.939-26.465-8.311-39.409-8.14,1.97-.885,3.941-1.742,5.851-2.685a1.139,1.139,0,0,0,.485.514c3.274,1.771,9.094.743,12.672.685,9.549,0,21.038,1.342,26.889,9.254s3.759,19.821,4.214,28.618c.637,11.167-.485,22.363-.728,33.531-.394,17.565.424,35.244,1.122,52.781.182,4.227,1.364,20.221-2.183,28.161Zm2.759-1.2a38.7,38.7,0,0,0,.879-3.8,13.462,13.462,0,0,0,6.821-2.256,1.085,1.085,0,0,0,.44-1.528,1.229,1.229,0,0,0-1.622-.414,15.742,15.742,0,0,1-5.244,1.856,5.049,5.049,0,0,1,.152-1.514l.212-.171a25.253,25.253,0,0,0,9.094-4.884c5.244,3.227-5,9.854-10.7,12.71Zm1.91-32.788h.3c5.184-1.657,3.789-5.712,4.729-10.282a17.931,17.931,0,0,1,3.031-6.312c.152,7.712-1.152,15.394-.424,23.134a41.545,41.545,0,0,1,.3,10.8c-.515,3.027-5.426,4.341-8.428,5.712,0-1.4.152-2.685.182-3.713.485-6.512.485-12.91.333-19.336Zm5.79-16.737a23.111,23.111,0,0,0-3.031,5.712c-.667,2.2,0,7.255-2.607,8.568-.3-11.424-.97-22.649-1.182-33.9-.243-11.881.606-23.763.758-35.644h0c3.789-.428,2.486,2.256,3.031,5.027a47.28,47.28,0,0,0,3.031,8.911,106.056,106.056,0,0,1,6.73,17.337C142.176,140.321,137.75,147.861,133.385,155.372Z" transform="translate(0.07 -0.003)" fill="#000000"/>
        <path id="Path_1052" data-name="Path 1052" d="M86.367,226.242l-7.548-.943a.78.78,0,0,0-.735.548.724.724,0,0,0,.341.823,21.959,21.959,0,0,0,7.791,1.542C87.246,228.27,87.549,226.414,86.367,226.242Z" transform="translate(0.07 -13.037)" fill="#000000"/>
        <path id="Path_1053" data-name="Path 1053" d="M96.462,228.458a29.445,29.445,0,0,0,8.4-2,.942.942,0,0,0,.712-1.157,1.011,1.011,0,0,0-1.228-.671,45.439,45.439,0,0,1-7.882,2.2.821.821,0,0,0,0,1.628Z" transform="translate(0.07 -12.996)" fill="#000000"/>
        <path id="Path_1054" data-name="Path 1054" d="M16.916,215.3a19.639,19.639,0,0,1-8.094-1.285,1.06,1.06,0,0,0-1.122,1.8c2.607,1.856,6.063,1.428,9.094,1.514A1.017,1.017,0,1,0,16.916,215.3Z" transform="translate(0.07 -12.373)" fill="#000000"/>
        <path id="Path_1055" data-name="Path 1055" d="M28.011,216.2a8.257,8.257,0,0,1-3.426-.514c-1.273-.486-1.819,1.457-.546,1.914a7.433,7.433,0,0,0,4.244.4A.915.915,0,0,0,28.011,216.2Z" transform="translate(0.07 -12.476)" fill="#000000"/>
        <path id="Path_1056" data-name="Path 1056" d="M59.841,223.085c-1.122-.2-2.3-.229-3.456-.486a.761.761,0,1,0-.424,1.457c1,.2,2.334.257,3.486.457S60.842,223.257,59.841,223.085Z" transform="translate(0.07 -12.879)" fill="#000000"/>
        <path id="Path_1057" data-name="Path 1057" d="M98.068,95.093c1.576,7.883,2,15.794,3.031,23.734,0,1.171,2.061,1.257,2,0a112.741,112.741,0,0,0-3.365-24.191A.866.866,0,0,0,98.068,95.093Z" transform="translate(0.07 -5.443)" fill="#000000"/>
        <path id="Path_1058" data-name="Path 1058" d="M100.554,141.554c.212,3.256,0,6.512.243,9.8a.86.86,0,0,0,1.667,0,87.926,87.926,0,0,0-.243-9.8C102.131,140.555,100.494,140.555,100.554,141.554Z" transform="translate(0.07 -8.149)" fill="#000000"/>
        <path id="Path_1059" data-name="Path 1059" d="M99.554,184.538c0,9.625.546,19.25.849,28.875a1.013,1.013,0,0,0,1.97,0c.182-9.654-.97-19.25-1.122-28.875a.85.85,0,0,0-1.7,0Z" transform="translate(0.07 -10.633)" fill="#000000"/>
        <path id="Path_1060" data-name="Path 1060" d="M76.848,53a13.379,13.379,0,0,0,1.213-.971.718.718,0,0,0,.266-1,.815.815,0,0,0-1.054-.283c-.485.257-.788.657-1.243.914a.75.75,0,0,0-.3,1.057A.85.85,0,0,0,76.848,53Z" transform="translate(0.07 -2.933)" fill="#000000"/>
        <path id="Path_1061" data-name="Path 1061" d="M72.513,53.859c-7.579,5.084-19.341,8.4-22.312,17.679-.394,1.285,1.607,1.771,2.092.543,3.274-8.426,13.975-11.853,21.22-16.737C74.393,54.688,73.483,53.2,72.513,53.859Z" transform="translate(0.07 -3.109)" fill="#000000"/>
        <path id="Path_1062" data-name="Path 1062" d="M29.254,77.749a77.516,77.516,0,0,0,8.155-.314.858.858,0,1,0,0-1.714,77.726,77.726,0,0,0-8.155.057.987.987,0,1,0,0,1.971Z" transform="translate(0.07 -4.379)" fill="#000000"/>
        <path id="Path_1063" data-name="Path 1063" d="M7.276,89.792a29.133,29.133,0,0,1,5.76-8.568c.788-.714-.394-1.771-1.152-1.114A25.158,25.158,0,0,0,5.82,88.878C5.366,89.906,6.76,90.734,7.276,89.792Z" transform="translate(0.07 -4.626)" fill="#000000"/>
        <path id="Path_1064" data-name="Path 1064" d="M8.761,157.179c-.576-11.853-3.031-23.534-3.911-35.387,0-.943-1.607-.943-1.576,0,.455,11.824,1.94,23.677,3.486,35.387C6.912,158.379,8.822,158.379,8.761,157.179Z" transform="translate(0.07 -7.008)" fill="#000000"/>
        <path id="Path_1065" data-name="Path 1065" d="M7.336,177.388c0,5.2,0,10.4.152,15.594a1.043,1.043,0,0,0,2.031,0c0-5.2-.3-10.4-.333-15.594a.951.951,0,0,0-1.849,0Z" transform="translate(0.07 -10.223)" fill="#000000"/>
        <path id="Path_1066" data-name="Path 1066" d="M16.855,208.7a6.418,6.418,0,0,0,2.759.228.991.991,0,0,0,0-1.971H18.522a.81.81,0,0,0-.385-.817.925.925,0,0,0-.949-.011,3.082,3.082,0,0,0-.788.428,1.366,1.366,0,0,0-.3,1.314A1.02,1.02,0,0,0,16.855,208.7Z" transform="translate(0.07 -11.921)" fill="#000000"/>
        <path id="Path_1067" data-name="Path 1067" d="M31.8,119.578a7.242,7.242,0,0,0,2.425,5.569c.94.885,2.334-.457,1.455-1.371a6.214,6.214,0,0,1-2.031-4.2.951.951,0,0,0-1.849,0Z" transform="translate(0.07 -6.879)" fill="#000000"/>
        <path id="Path_1068" data-name="Path 1068" d="M41.592,130.243a19.563,19.563,0,0,0,5.457.657.858.858,0,1,0,0-1.714,23.935,23.935,0,0,1-4.941-.714.983.983,0,0,0-1.2.643.913.913,0,0,0,.682,1.128Z" transform="translate(0.07 -7.433)" fill="#000000"/>
        <path id="Path_1069" data-name="Path 1069" d="M128.383,76.581c0,4.2-.152,8.4,0,12.567a.982.982,0,0,0,1.91,0V76.581a.957.957,0,0,0-1.91,0Z" transform="translate(0.07 -4.381)" fill="#000000"/>
        <path id="Path_1070" data-name="Path 1070" d="M108.8,55.139a29.889,29.889,0,0,1,10.337,4.027,1.076,1.076,0,0,0,1.425-.343.949.949,0,0,0-.364-1.342A23.719,23.719,0,0,0,108.8,53.6C107.739,53.511,107.769,55.024,108.8,55.139Z" transform="translate(0.07 -3.103)" fill="#000000"/>
        <path id="Path_1071" data-name="Path 1071" d="M131.657,69.908a13.454,13.454,0,0,1-1.607-4.2c-.212-1.228-2.183-.714-1.97.514a14.608,14.608,0,0,0,1.849,4.627C130.505,71.965,132.233,70.993,131.657,69.908Z" transform="translate(0.07 -3.764)" fill="#000000"/>
        <path id="Path_1072" data-name="Path 1072" d="M100.554,74.592a34.177,34.177,0,0,0-14.036-6.6.774.774,0,0,0-.94.514.721.721,0,0,0,.546.885A35.381,35.381,0,0,1,99.281,75.82C100.039,76.506,101.433,75.335,100.554,74.592Z" transform="translate(0.07 -3.935)" fill="#000000"/>
        <path id="Path_1073" data-name="Path 1073" d="M106.526,85.168a26.4,26.4,0,0,1,3.4,10.282c.152.914,1.819.714,1.758-.228a22.329,22.329,0,0,0-3.577-10.91C107.466,83.368,105.92,84.225,106.526,85.168Z" transform="translate(0.07 -4.857)" fill="#000000"/>
        <path id="Path_1074" data-name="Path 1074" d="M88.277,217.236a1,1,0,0,0,2,0,15.808,15.808,0,0,0-.576-6.74.948.948,0,0,0-1.152-.628.883.883,0,0,0-.667,1.085,28.982,28.982,0,0,1,.394,6.283Z" transform="translate(0.07 -12.142)" fill="#000000"/>
        <path id="Path_1075" data-name="Path 1075" d="M82.79,215.174c0,1.085-.182,2.142-.182,3.256a1,1,0,0,0,2,0c0-1.114.273-2.171.3-3.256a1.063,1.063,0,0,0-2.122,0Z" transform="translate(0.07 -12.393)" fill="#000000"/>
        <path id="Path_1076" data-name="Path 1076" d="M73.271,216.049a1.113,1.113,0,0,0,.94-.457,1.162,1.162,0,0,0,.3-.714.377.377,0,0,1,0-.171,1.08,1.08,0,0,0-.97-1.2,1.122,1.122,0,0,0-1.273.914h0a1.535,1.535,0,0,0,0,.514.961.961,0,0,0,.244.761A1.086,1.086,0,0,0,73.271,216.049Z" transform="translate(0.07 -12.354)" fill="#000000"/>
        <path id="Path_1077" data-name="Path 1077" d="M92.005,152.348a112.444,112.444,0,0,0,.637-21.649c0-1.057-1.88-1.085-1.789,0,.758,7.226-.606,14.281-.819,21.649C90,153.547,91.914,153.519,92.005,152.348Z" transform="translate(0.07 -7.518)" fill="#000000"/>
        <path id="Path_1078" data-name="Path 1078" d="M84.336,148.5v5.712a.941.941,0,0,0,1.88,0c0-1.856,0-3.713,0-5.712a1.023,1.023,0,0,0-1.88,0Z" transform="translate(0.07 -8.558)" fill="#000000"/>
        <path id="Path_1079" data-name="Path 1079" d="M76.7,153.494a2.919,2.919,0,0,1,.97-2.114c.94-.914-.546-2.285-1.455-1.371a4.794,4.794,0,0,0-1.485,3.484C74.7,154.693,76.636,154.665,76.7,153.494Z" transform="translate(0.07 -8.664)" fill="#000000"/>
        <path id="Path_1080" data-name="Path 1080" d="M83.548,85.213a.941.941,0,0,0,1.243.314.831.831,0,0,0,.333-1.171,11.846,11.846,0,0,0-3.031-3.427c-.879-.657-2.152.486-1.273,1.2a13.209,13.209,0,0,1,2.728,3.085Z" transform="translate(0.07 -4.674)" fill="#000000"/>
        <path id="Path_1081" data-name="Path 1081" d="M79.273,91.137a1.1,1.1,0,0,0,1.758,0,.566.566,0,0,1,0-.171A1.043,1.043,0,0,0,80.77,89.6a1.207,1.207,0,0,0-1.478,0,1.043,1.043,0,0,0-.261,1.371Z" transform="translate(0.07 -5.172)" fill="#000000"/>
      </g>
    </g>
  </g>
</svg>
