<svg xmlns="http://www.w3.org/2000/svg" width="223" height="228" viewBox="0 0 223 228">
  <g id="Layer_2" data-name="Layer 2" transform="translate(0.015 0.001)">
    <g id="Calendar" transform="translate(-0.015 -0.001)">
      <path id="Path_1025" data-name="Path 1025" d="M222.95,207.417c-.329-16.684-.535-33.442-.329-50.089.247-18.876.782-37.158-.905-55.737-1.029-11.333.411-19.842-11.067-26.9a.634.634,0,0,0-.411,0,14.512,14.512,0,0,0-10.82-.966h0a173.181,173.181,0,0,1-25.3-21.7c-4.937-14.677-18.431-30.061-35.011-34.742A76.944,76.944,0,0,0,127.09.486a1.912,1.912,0,0,0-2.18-.26A166.386,166.386,0,0,0,107.219,11.15a2.077,2.077,0,0,0-.658-.409A203.591,203.591,0,0,0,66.53,4.053a19.127,19.127,0,0,0-17.65,7.432c-9.051,11.147-17.2,23.261-26.166,34.668A164.628,164.628,0,0,0,.045,81.75,1.5,1.5,0,0,0,.827,83.5,87.854,87.854,0,0,0,20.986,92.08a1.086,1.086,0,0,0-.411,1.263c3.62,12.039,5.719,25.453,15.017,35.188a1.638,1.638,0,0,0,2.181,0,67.6,67.6,0,0,1,30.9-14.863h0a.911.911,0,0,0,0,.595c0,23.521.37,47.042.576,70.6a.92.92,0,0,0,.329.743,77.192,77.192,0,0,1-6.336,13.3,1.363,1.363,0,0,0-.183,1.13,1.512,1.512,0,0,0,.759.914,55.332,55.332,0,0,0,5.431,2.192c-.247,4.385-1.769,12.151,2.3,15.2,7.693,9.55,17.732,7.432,30.074,6.465,19.3-1.821,37.974.669,57.1,2.564,16.457,1.635,33.942-.372,50.563-.966a11.561,11.561,0,0,0,3.62-.669,1.923,1.923,0,0,0,1.4.26C223.361,224.436,223.073,213.883,222.95,207.417ZM168.191,46.45c-3.332-3.121-6.706-6.243-10.2-9.178a103.462,103.462,0,0,1-16.457-16.424,55.147,55.147,0,0,1,26.66,25.6ZM5.229,82.307C1.115,80,18.148,57.449,20,54.922c5.472-7.432,11.4-14.6,17.074-21.886S46.905,18.173,52.789,11.67C58.055,5.725,65.5,6.58,72.948,7.583a241.181,241.181,0,0,1,31.473,5.388,216.824,216.824,0,0,1-18.514,11.89C70.562,33.445,53.941,38.684,38.06,46.153c-3.127,1.449-8.887,3.307-10.45,6.465-1.934,3.939-.494,5.5.329,9.847C30.2,74.318,40.775,83.979,48.716,92.9c2.263,2.527,4.484,5.165,6.706,7.729a191.551,191.551,0,0,0-21.723-8.1A179.188,179.188,0,0,1,5.229,82.307ZM37.566,124.89C34.6,127.157,24.73,96.2,23.414,92.9l9.545,2.638a172.648,172.648,0,0,1,19.666,7.134,44.435,44.435,0,0,0-7.282,2.341,1.2,1.2,0,0,0-.778,1.467,1.368,1.368,0,0,0,1.519.874c3.086-.817,6.13-1.858,9.175-2.787a1.239,1.239,0,0,0,.576-.372,62.849,62.849,0,0,1,6.377,3.716l.288.26a151.711,151.711,0,0,0-21.311,7.915c-1.522.743,0,2.787,1.358,2.118,7.076-3.233,14.358-5.908,21.682-8.658.658.595,1.275,1.226,1.975,1.784A76.4,76.4,0,0,0,37.566,124.89Zm31.062-15.569-.329-.3c-.823-.78-1.687-1.523-2.592-2.267a157.932,157.932,0,0,1-12.96-14.306c-4.526-5.314-9.421-10.367-13.659-15.866S25.224,57.374,33.37,52.024A129.59,129.59,0,0,1,59.083,41.137,213.809,213.809,0,0,0,84.632,29.358,174.668,174.668,0,0,0,104.5,17.616c3.332-2.341,6.583-4.719,9.874-7.1,6.007-4.347,10-9.066,15.3-2.081,3.826,5.091,5.924,11.147,10.162,16.015a173.1,173.1,0,0,0,20.571,19.173c12.342,10.218,21.928,22.778,35.834,31.4-4.114.966-8.475,2.081-12.63,3.307a8.149,8.149,0,0,0,2.18-5.648,1.325,1.325,0,0,0-1.07-1.3,12.739,12.739,0,0,0-7.076.223,1.046,1.046,0,0,0-.7.706,4.066,4.066,0,0,0-3.25,2.3c-.7,1.709,1.029,3.381,2.51,4.2a7.3,7.3,0,0,0,2.921.855c-11.52,3.716-22.834,7.8-34.106,12.113-16.457,6.242-34.353,9.735-49.74,17.984C85.044,115.192,77.844,116.567,68.628,109.321Zm114.044-35.56a3.949,3.949,0,0,1-1.769,3.047,3.743,3.743,0,0,1-3.086,0s-.741-.446-.617-.334l-.247-.446V75.8h0a2,2,0,0,1,.741-.372,14.947,14.947,0,0,1,3.044-.706.98.98,0,0,0,.7-.483q.6-.271,1.234-.483Zm17.773,48.008a1.7,1.7,0,0,0-1.317-.223c-19.995,3.716-40.483,3.53-60.766,4.942a268.07,268.07,0,0,1-57.6-.743,2.092,2.092,0,0,0-.7,0,33.731,33.731,0,0,0-1.851-7.877c7.57,1.152,15.14-3.27,21.764-6.837a55.908,55.908,0,0,1,6.5-2.973A88.523,88.523,0,0,0,141.7,106.5a1.3,1.3,0,0,0-.37-2.564,258.971,258.971,0,0,1-28.223,1.821c3.456-1.078,6.953-2.007,10.45-2.973,2.51-.706,4.978-1.486,7.405-2.3a76.207,76.207,0,0,0,23.286-.892,1.3,1.3,0,0,0-.37-2.564c-5.307.26-10.532.632-15.8.892l11.314-4.347c5.431-2.081,10.861-4.162,16.457-6.131a2.138,2.138,0,0,0,.7,0c9.257,0,18.39-1.3,27.606-1.3,3.579,0,6.788-1.672,6.583,2.044v4.868C200.281,102.707,200.61,112.219,200.445,121.769ZM75.7,151.5a153.02,153.02,0,0,1-3.662,25.639c0-20.585-.37-41.171-.494-61.756l.453.3a17.86,17.86,0,0,0,2.962,1.412C78.914,128.048,76.527,140.236,75.7,151.5Zm-8.228,46.113a72.683,72.683,0,0,0,5.266-11.147,94.761,94.761,0,0,0,5.719-26.679c.823-9.327,3.044-21.031,2.016-31.473a273.968,273.968,0,0,0,57.886,1.189c20.571-1.115,41.512-.929,61.712-4.942h.411a144.176,144.176,0,0,1-.946,15.829,1.5,1.5,0,0,0-.247.632v2.638a59.5,59.5,0,0,1-2.3,9.847,1.7,1.7,0,0,0-1.111,1.338,5.514,5.514,0,0,1-.329,2.3c-3.086,6.28-8.228,9.847-15.963,6.428a1.723,1.723,0,0,0-2.88-1.412h0a1.4,1.4,0,1,0-1.522,2.341h.288c-8.228,14.566-19.3,26.716-36.616,32.922A124.566,124.566,0,0,1,78.214,202.4c-2.016-.334-12.342-1.746-10.615-4.793Zm113.1-17.984c8.887-5.537,15.634-12.039,17.773-21.291a33.679,33.679,0,0,1-8.228,22.295c-8.228,8.583-21.106,13.154-32.419,17.093a195.031,195.031,0,0,1-43.939,9.921c-8.228.817-16.21,1.04-24.315,1.189H79.078c-2.468,0-2.592-2.341-3.044-4.013,18.8,4.422,39.455.966,58.051-3.121a60.056,60.056,0,0,0,11.725-3.716c12.63-3.79,23.986-11.593,34.888-18.356Zm-19.583,8.063a90,90,0,0,0,16.868-21.774,13.47,13.47,0,0,0,12.672.78,61.04,61.04,0,0,1-16.457,13.191c-4.279,2.638-8.557,5.276-12.96,7.8Zm6.871,9.55A64.955,64.955,0,0,0,195.3,179.4a24.605,24.605,0,0,0,2.222-3.27,79.641,79.641,0,0,1-1.234,15.606c-2.139,10.4-22.093,12.374-31.8,14.008a249.269,249.269,0,0,1-37.48,2.638,210.244,210.244,0,0,0,40.977-11.147Zm3.538,10.516a122.056,122.056,0,0,0,16.95-4.57c2.263-.78,7.529-2.044,8.722-3.716a20.547,20.547,0,0,0,2.057-4.236c0,2.267,0,4.533,0,6.763,0,7.134-8.8,6.094-14.688,6.28-8.516.26-17.4,1.561-26.125,1.709,4.484-.78,8.887-1.412,13.206-2.229Zm29.786,15.2c-5.76,0-11.52.52-17.279.929a183.932,183.932,0,0,1-36.451-.929A244.481,244.481,0,0,0,111.7,220.98c-11.561.334-24.685,4.756-34.394-1.338,2.139,0,4.4-.26,6.048-.372,6.459-.334,12.877-.446,19.336-.595,17.4-.334,34.682-1.078,52.126-.743,18.637.372,38.632-.929,57.022,1.746C212.541,224.4,204.313,222.949,201.186,222.949Zm11.52-8.732a1.934,1.934,0,0,0-1.409.173,1.61,1.61,0,0,0-.813,1.053,341.549,341.549,0,0,0-37.027-.743c-14.976,0-29.951-.334-44.968,0-13.412,0-27.236.334-40.565,1.338-4.114.3-14.975,2.824-15.757-3.307a57.636,57.636,0,0,1,0-8.844l1.234.372a1.285,1.285,0,0,0,0,1.04,42.614,42.614,0,0,1,.7,5.053,1.494,1.494,0,0,0,1.522,1.375c7.652,0,15.181,0,22.587-.3h.37a316.425,316.425,0,0,0,48.177-.483.879.879,0,0,0,.658.372c9.133,2.118,18.226,0,27.483-.334a247.872,247.872,0,0,0,25.755-1.3,1.552,1.552,0,0,0,1.193-1.449,112.834,112.834,0,0,0,0-19.731,1.075,1.075,0,0,0-.987-1.078c.741-6.763,0-14.12,0-20.771a151.136,151.136,0,0,0,1.029-25.3c3.044-21.366.905-48.937,1.851-55.96a1.552,1.552,0,0,0-1.193-1.449,134.208,134.208,0,0,0-27.853,0,251.182,251.182,0,0,1,24.685-7.432,1.206,1.206,0,0,0,.946-.929c3.662.3,8.475-.26,10.491,2.378,2.8,3.716,1.646,11.147,1.481,15.123-.411,10.59-1.522,21.031-1.563,31.658,0,15.792.864,31.621,1.481,47.376.453,13.674,2.756,28.834.494,42.211ZM219,194.449c0,5.536,2.8,21.96-3.127,26.716a8.168,8.168,0,0,0-.453-2.527h0a71.308,71.308,0,0,0,.741-20.288c-.535-9.772-.37-19.545-.741-29.317-.7-19.1-1.769-38.235-1.111-57.372.247-6.28,2.715-18.133,1.4-27.088,3.25,6.874,2.263,14.863,3.127,23.186a323.683,323.683,0,0,1,.411,42.843c-.411,14.64-.247,29.317-.247,43.958Z" transform="translate(0.015 0.001)" fill="#000000"/>
      <path id="Path_1026" data-name="Path 1026" d="M64.44,31.81c-13.943,0-27.5,2.658-41.443.847-1.232-.193-1.387,1.772-.27,2.08,13.48,3.852,28,.347,41.712,0a1.464,1.464,0,1,0,0-2.927Z" transform="translate(70.03 86.305)" fill="#000000"/>
      <path id="Path_1027" data-name="Path 1027" d="M91.01,30.35c-11.555-.462-23.109.231-34.664,0-10.669-.385-20.991,2.2-31.7.886-1.271,0-1.541,1.964-.308,2.2,9.629,1.849,19.258.5,28.887,0,12.595-.693,25.3.347,37.9-.231a1.426,1.426,0,1,0-.116-2.85Z" transform="translate(76.427 81.913)" fill="#000000"/>
      <path id="Path_1028" data-name="Path 1028" d="M49.143,25.136a1.155,1.155,0,0,0-.5.462,3.852,3.852,0,0,0-3.852,5.739,5.508,5.508,0,0,0,7.279,3.235,5.623,5.623,0,0,0,2.7-5.97,4.429,4.429,0,0,0-5.623-3.466Zm2.2,6.7c-.809.809-1.81.578-2.812,0a2.519,2.519,0,0,1-1.232-2.889c.424-.963,1.81-1,2.658-1.117a7.279,7.279,0,0,1,1.387.385,1.348,1.348,0,0,1,.77.886,3.081,3.081,0,0,1-.77,2.619Z" transform="translate(140.547 67.618)" fill="#000000"/>
      <path id="Path_1029" data-name="Path 1029" d="M28.307,67.492c7.7,5.046,9.513.809,16.253-1.425.5,9.4.77,18.8.347,28.193a1.579,1.579,0,0,0,1.579,1.579,65.01,65.01,0,0,1,8.666-.5,1.656,1.656,0,0,0,1.579-1.579c.77-18.449,5.7-38.746-.616-56.656a1.541,1.541,0,0,0-1.849-1.04,66.362,66.362,0,0,1-9.013.963c-.347-1.04-1.618-1.733-2.465-.655,0,.27-.347.539-.539.77h-.886a1.348,1.348,0,0,0-.809,2.388c-5.161,8.127-7.7,17.64-12.826,25.767a1.579,1.579,0,0,0,.578,2.2Zm4.968-5.161c4.083-7.318,6.047-15.406,10.9-22.416a40.1,40.1,0,0,0,7.7-.385c3.62-.693,3.466,7.433,3.852,9.282a135.112,135.112,0,0,1-.462,24.65c-.27,3.582-.578,7.164-.886,10.746-.424,5.161.924,7.7-5.007,8.127-1.194,0-1.579-25.5-1.733-28.232a1.541,1.541,0,0,0-1.887-1.464C42.211,63.448,28.191,71.344,33.275,62.331Z" transform="translate(86.999 95.652)" fill="#000000"/>
      <path id="Path_1030" data-name="Path 1030" d="M21.568,84.26A122.286,122.286,0,0,0,29.5,39.351a1,1,0,0,0-2,0,144.4,144.4,0,0,1-8.435,44.216C18.487,85.185,20.952,85.8,21.568,84.26Z" transform="translate(59.423 102.868)" fill="#000000"/>
      <path id="Path_1031" data-name="Path 1031" d="M23.423,56.854A58.154,58.154,0,0,1,26.7,51c1.078-1.425-1.348-2.812-2.349-1.387a32.467,32.467,0,0,0-3.081,5.97C20.611,57.046,22.614,58.317,23.423,56.854Z" transform="translate(66.041 132.869)" fill="#000000"/>
      <path id="Path_1032" data-name="Path 1032" d="M16.368,24.44c-.77-1.425-2.927,0-2.157,1.271A33.239,33.239,0,0,0,25.419,38.074c1.155.732,2.542-1.04,1.464-1.887A36.127,36.127,0,0,1,16.368,24.44Z" transform="translate(44.056 64.553)" fill="#000000"/>
      <path id="Path_1033" data-name="Path 1033" d="M18.565,24.381c-.809-.963-2.118.424-1.387,1.387,1.887,2.388,3.543,4.93,5.431,7.318.809,1,2.234-.424,1.425-1.464C22.186,29.234,20.453,26.769,18.565,24.381Z" transform="translate(53.051 65.198)" fill="#000000"/>
      <path id="Path_1034" data-name="Path 1034" d="M21.8,26.847c.655,1.232,2.542,0,1.849-1.078a5.7,5.7,0,0,0-2.658-2.2c-1.232-.578-2.311,1.232-1.078,1.849A3.851,3.851,0,0,1,21.8,26.847Z" transform="translate(60.487 63.665)" fill="#000000"/>
      <path id="Path_1035" data-name="Path 1035" d="M50.9,38.426c1,1.155,3.043-.385,2.118-1.618A302.962,302.962,0,0,1,32.685,4.225c-.616-1.117-2.234,0-1.695,1A148.63,148.63,0,0,0,50.9,38.426Z" transform="translate(97.205 10.723)" fill="#000000"/>
      <path id="Path_1036" data-name="Path 1036" d="M27.831,6.52a17.409,17.409,0,0,1,4.93,7.433c.77,1.425,2.773,0,2.118-1.271a14.366,14.366,0,0,0-5.97-7.973,1.054,1.054,0,1,0-1.078,1.81Z" transform="translate(85.402 13.011)" fill="#000000"/>
      <path id="Path_1037" data-name="Path 1037" d="M19.826,26.262A67.132,67.132,0,0,0,3.88,20.87c-1.348-.193-2,1.81-.578,2.118C8.81,24.22,13.856,26.84,19.21,28.5,20.712,29.112,21.212,26.8,19.826,26.262Z" transform="translate(7.191 56.55)" fill="#000000"/>
      <path id="Path_1038" data-name="Path 1038" d="M4.08,21.61a9.282,9.282,0,0,1,4.468.732,1.1,1.1,0,1,0,1.117-1.887A9.629,9.629,0,0,0,4.08,19.338a1.155,1.155,0,0,0,0,2.272Z" transform="translate(8.994 52.347)" fill="#000000"/>
      <path id="Path_1039" data-name="Path 1039" d="M15,6.424A22.878,22.878,0,0,1,26.054,9.235a1.348,1.348,0,0,0,1.387-2.311,19.527,19.527,0,0,0-7.164-2.7c-1.849-.424-4.583-1.078-6.124.347A1.078,1.078,0,0,0,15,6.424Z" transform="translate(43.378 10.566)" fill="#000000"/>
      <path id="Path_1040" data-name="Path 1040" d="M14.081,8.041h1.387a1.155,1.155,0,1,0,0-2.311H14.081a1.194,1.194,0,0,0,0,2.311Z" transform="translate(41.188 16.343)" fill="#000000"/>
    </g>
  </g>
</svg>
