<svg xmlns="http://www.w3.org/2000/svg" xmlns:xlink="http://www.w3.org/1999/xlink" width="223" height="228" viewBox="0 0 223 228">
  <defs>
    <clipPath id="clip-path">
      <rect id="Rectangle_224" data-name="Rectangle 224" width="223" height="228" transform="translate(-8140 -8538)" fill="#000000" stroke="#707070" stroke-width="1"/>
    </clipPath>
  </defs>
  <g id="Mask_Group_39" data-name="Mask Group 39" transform="translate(8140 8538)" clip-path="url(#clip-path)">
    <g id="Layer_2" data-name="Layer 2" transform="translate(-8140 -8481.142)">
      <g id="World_Map" data-name="World Map">
        <path id="Path_1041" data-name="Path 1041" d="M103.571,12.591a2.12,2.12,0,0,0-1.441-.4.678.678,0,0,0-.721.827c-4.515.466-8.309,3.688-11.977,6.126-4.812,3.158-8.967,5.384-12.295,10.281a.763.763,0,0,0,.276,1.039,3.286,3.286,0,0,0,4.685-.488c2.12-1.823,2.989-4.049,6.359-4.24a9.348,9.348,0,0,0,3.6-.3c3.54-1.611,5.236-5.363,8.627-7.313a5.321,5.321,0,0,0,3.18-4.9.742.742,0,0,0-.3-.636Zm-5.7,5.469c-1.929,1.738-3.349,3.964-5.448,5.554-1.526,1.166-4.24.636-6.168,1.039a8.182,8.182,0,0,0-3.582,2.5q-.763.912-1.59,1.781l-.869-1.06a20.351,20.351,0,0,1,1.971-2.12A31.054,31.054,0,0,1,89.157,21.2c4.494-2.438,8.034-6.1,13.248-7.08C102.193,15.008,97.911,18.018,97.869,18.06Z" fill="#000000"/>
        <path id="Path_1042" data-name="Path 1042" d="M126.761,63.783a4.239,4.239,0,0,0,5.6-4.24.848.848,0,0,0-.657-.763,2.12,2.12,0,0,0-3.307-.276,5.956,5.956,0,0,0-2.268,4.451.89.89,0,0,0,.636.827Zm3.922-4.24a2.438,2.438,0,0,1-2.713,2.713c.339-1.335,1.441-3.264,2.713-2.692Z" fill="#000000"/>
        <path id="Path_1043" data-name="Path 1043" d="M165.722,60.328a.721.721,0,0,0-.191-.3.572.572,0,0,0-.89-.53c-2.12,1.463-7.462,8.479-2.586,9.857C165.638,70.312,166.485,62.427,165.722,60.328Zm-3.116,7.5c-.721.276-1.017-.721-1-1.208a5.915,5.915,0,0,1,.911-2.4,17.15,17.15,0,0,1,1.844-2.671,9.454,9.454,0,0,1-.148,2.692C164.069,65.267,163.73,67.451,162.606,67.832Z" fill="#000000"/>
        <path id="Path_1044" data-name="Path 1044" d="M166.295,46.168c1.463,1,3.349-1,4.24-1.95a12.93,12.93,0,0,0,3.434-5.66.763.763,0,0,0-.339-.869,12.188,12.188,0,0,0-4.939-1.908.678.678,0,0,0-.488.191,6.041,6.041,0,0,0-.848,0,.615.615,0,0,0-.148,1.187c.975.254,2.374.424,1.675,1.653a15.136,15.136,0,0,1-2.12,2.628C165.7,42.522,164.62,45,166.295,46.168Zm.784-2.756c.763-1.7,2.65-2.692,3.349-4.473a2.12,2.12,0,0,0,.17-.975c.572.254,1.145.509,1.738.806a14.118,14.118,0,0,1-2.883,4.367,7.207,7.207,0,0,1-2.12,1.7c-.254.127-.233,0-.276,0a2.4,2.4,0,0,1,.021-1.42Z" fill="#000000"/>
        <path id="Path_1045" data-name="Path 1045" d="M222.574,79.109a11.363,11.363,0,0,0-.954-3.816c-1.187-3.519-2.268-7.059-3.434-10.6-2.332-6.91-4.494-13.884-7.334-20.6a159.239,159.239,0,0,1-8.119-21.049c-.89-3.434-1.251-7-2.12-10.472s-3.137-6.932-3.816-10.79a.869.869,0,0,0-1.06-.615c-7.313,1.738-13.566,7.462-19.247,12.1-6.168,5.045-14.414,13.312-22.766,13.651a.911.911,0,0,0-.339.106.742.742,0,0,0-.254-.148h-.339a.636.636,0,0,0-.488,0c-6.635-2.65-11.489-8.246-17.128-12.443C128.436,9.391,121.356,5,114.255.572a.636.636,0,0,0-.721,0,.636.636,0,0,0-.827,0c-6.72,4.642-13.5,9.369-20.328,13.906-3.349,2.289-7.038,4.24-10.323,6.72A42.268,42.268,0,0,1,73.7,27.048a12.931,12.931,0,0,0-5.045-4.685c-4.24-2.883-8.988-5.172-13.439-7.758S46.359,9.221,41.738,6.932A51.976,51.976,0,0,1,29.889.191a.7.7,0,0,0-1.1.212.806.806,0,0,0-.721.572c-4.24,14.033-9.984,27.557-15.2,41.166C10.535,48.288,8.373,54.5,6.508,60.816a.466.466,0,0,0-.148.191C2.819,67.98-1.166,76.311.318,84.324S14.139,97.042,20.371,99.565c10.09,4.24,20.18,8.479,30.461,12.083,1.823.636,9.645,4.24,11.7,1.781,4.96-1.717,9.2-5.278,13.715-7.843,5.511-3.116,11-6.147,16.725-8.818s14.351-6.232,17.806-12.358a1.04,1.04,0,0,0,0,.233h0a.636.636,0,0,0,.721.276.252.252,0,0,0,.233.233c.975.382,1.929.806,2.883,1.229,1.505.678,2.989,1.378,4.473,2.12A110.968,110.968,0,0,1,134.9,99.1c4.9,3.54,10.7,5.7,15.835,8.9a36.227,36.227,0,0,0,14.287,6,1,1,0,0,0,.509,0,.911.911,0,0,0,.424,0c5.511-1.06,10.281-4.24,15.093-7,6.232-3.5,12.719-6.359,19.078-9.772,5.6-3.01,10.959-6.359,16.513-9.518C219.755,85.977,223,83.73,223,79.851a.784.784,0,0,0-.424-.742ZM136.385,17.488c4.939,4.028,9.645,8.8,15.729,11.044a.572.572,0,0,0,.318.276,20.138,20.138,0,0,1,.318,2.607,15.262,15.262,0,0,1-10.069-4.579,47.313,47.313,0,0,0-11.7-7.462l-.233-.106a34.468,34.468,0,0,0-.339-6.359C132.442,14.393,134.435,15.9,136.385,17.488ZM113.534,1.844c5.087,3.286,10.26,6.486,15.241,9.963v6.529c-1.7-.806-3.392-1.632-5.045-2.544a18.569,18.569,0,0,1-6.19-6.635,4.791,4.791,0,0,0-4.367-2.417C113.237,5.109,113.364,3.476,113.534,1.844Zm-.7,11.807a2.777,2.777,0,0,0,1.017-1.272c.212-.848-1.908-6.571,1.569-3.052a66.157,66.157,0,0,1,3.943,5.511c1.738,2.12,5.278,3.476,7.716,4.642l1.547.742c-.17,2.883-.424,5.745-.763,8.691a.727.727,0,0,0,1.42.191A42.4,42.4,0,0,0,130.64,21.2c1.759.848,3.519,1.675,5.215,2.628a62.744,62.744,0,0,1,8.479,6.72,11.934,11.934,0,0,0,8.606,2.862c.233,3.773.339,8.352.445,9.221.488,4.43,1.123,8.839,1.781,13.227a4.24,4.24,0,0,0-1.611,2.968,30.38,30.38,0,0,1-2.247-3.158h.233a.721.721,0,0,0,.721-1.229l-1.759-.89a50.217,50.217,0,0,0-3.095-13.736c-.3-.721-1.441-.445-1.187.318a47.291,47.291,0,0,1,2.12,10.98,24.145,24.145,0,0,0-2.629-3.286,49.561,49.561,0,0,0-5.935-5.045c0-4.049.233-8.1.36-12.167,0-.763-1.081-.721-1.166,0-.424,3.519-.805,7.122-1.081,10.79l-.933-.678a.763.763,0,0,0,.17-.7c-.551-2.734-4.642-5.808-7.483-4.24a2.12,2.12,0,0,0-1.039,2.692c.615,2.48,3.286,2.756,5.384,3.052,1.187,0,1.208.509,0,1.632a5.363,5.363,0,0,1-2.925-.763,7.462,7.462,0,0,1-2.734-2.883,50.471,50.471,0,0,1-3.031-6.359,15.665,15.665,0,0,0-1.971-3.349.615.615,0,0,0,.488-.594c.509-3.667-2.374-2.734-4.112-3.985,3.731-.3,1.653-5.405-2.586-5.66-2.12-.148-1.123-.233-2.311-1.42a7.758,7.758,0,0,0-2.12-.678C112.771,16.216,112.792,14.838,112.834,13.651Zm44.3,24.25c1.017,1.017,2.713.466,4.028.4,4.006-.212-2.713,3.752-3.18,5.427a3.879,3.879,0,0,0,1.717,4.24c3.392,2.713-.318,5.13-2.925,6.8q-1.59-10.726-2.565-21.494c6.359-1.081,12.485-6.359,18.887-7.97-.657,7.186-10.768,5.681-15.453,9.285a2.607,2.607,0,0,0-.509,3.307Zm-10.6,13.566q-3.37-1.632-6.868-2.989V45.045a67.491,67.491,0,0,1,5.745,5.193,6.713,6.713,0,0,1,1.123,1.229ZM135.325,39.894a18,18,0,0,0-2.65-.4c-1.759-.276-3.264-2.671-.742-2.247a4.663,4.663,0,0,1,3.392,2.65ZM113.873,20.456a.827.827,0,0,0,.827.806,6.486,6.486,0,0,1,3.922.53c2.12,1.187,1.929,1.7-.488,1.547-.594-.148-1.335.424-1.081,1.081.551,1.484,4.388,3.095,5,4.07a7.1,7.1,0,0,0-5.151-1.7v-.148a9.157,9.157,0,0,0-4.049-2.692V22.809a2.841,2.841,0,0,0,0-3.031V19.2a1.293,1.293,0,0,1,1.017,1.251Zm-1.039,16.958V25.8a12.846,12.846,0,0,1,2.734,1.611.784.784,0,0,0,0,.615c.466.848.509.848,1.378,1.357a.869.869,0,0,0,.445,0,.594.594,0,0,0,0,.191,4.239,4.239,0,0,0,1.887,2.65c1.929,1.569,1.781,5.384,2.946,7.462a11.086,11.086,0,0,0,2.84,3.561c1.229,1,6.1,2.84,2.756,5.321-1.675,1.229-2.777.827-4.24,2.268-1.06,1.081-.806,4.24-1.463,5.448-1.675,2.946-6.084,3.816-7.377.148a11.107,11.107,0,0,1-.276-3.837,67.094,67.094,0,0,1,1.039-7.695c.551-3.158.3-7.4-2.671-7.419Zm0,1.484c1.865,0,1.357,3.816,1.293,4.685-.254,2.989-.975,5.935-1.208,8.945-.254,3.392.827,8.479,5.172,8.479a6.677,6.677,0,0,0,4.854-2.862c1.505-2.12,1.95-6.762,4.367-7.334,2.9-.7,5.384-3.837,2.883-6.168s-5.405-3.031-6.974-6.783c-.763-1.8-1.081-3.773-1.844-5.6-.53-1.251-1.95-1.8-2.565-3.116a.594.594,0,0,0-.678-.382.869.869,0,0,0,0-.233c6.953,1.123,6.359,13.524,13.4,16.047,2.12.784,5.066.318,5.575-1.569l.636.488c0,1.4-.148,2.777-.17,4.24l-2.692-1.1c-.572-.212-.975.742-.4,1l3.074,1.463a82.67,82.67,0,0,0,1.06,15.093.7.7,0,0,0,1.293-.17c-.3-4.663-.36-9.285-.318-13.906,2.946,1.441,5.893,2.9,8.861,4.24h0c.318,6.084.148,12.21,1,18.293,0,.806,1.4.594,1.4-.191,0-4.642,0-9.518-.17-14.393a19.438,19.438,0,0,0,3.052,3.837c.551.488,1.717.191,1.611-.678a5.321,5.321,0,0,1,.127-2.311c1.463,9.772,2.946,19.735,5.363,29.274.212.89,1.738.721,1.611-.233-1.208-9.56-3.476-19.078-5.045-28.532-.148-.848-.254-1.7-.4-2.544a36.29,36.29,0,0,0,3.455-2.311,6.529,6.529,0,0,0,1.95-5.935c-1.06-2.607-3.6-3.582-.127-6.359a4.727,4.727,0,0,0,1.908-5.087c-.466-1.229-2.12-1.017-3.137-.911-4.451.53,2.12-2.268,3.476-2.65,5.384-1.569,10.6-2.968,10.3-9.56a.89.89,0,0,0-1-.742,42.4,42.4,0,0,0-12.591,5.554,18.739,18.739,0,0,1-7.165,2.459c0-.975-.17-1.971-.254-2.946,6.19-.106,11.68-4.663,16.386-8.225,5.723-4.24,11.129-9.136,17.085-13.142a36.567,36.567,0,0,1,2.819,5.427.615.615,0,0,0,1.123-.466A18.378,18.378,0,0,0,188.3,6.359a42.079,42.079,0,0,1,3.816-2.12c2.8-1.4,2.9-1.526,3.794,1.145.657,2.12,1.865,3.985,2.692,5.957a24.144,24.144,0,0,1,1.251,5.617c-3.625,2.459-7.8,3.943-11.489,6.359-1.993,1.272-3.943,2.628-5.914,3.922-.424-2.12-.827-4.388-1.187-6.614-.106-.615-1.166-.466-1.1.148q.488,3.625,1.017,7.313a67.329,67.329,0,0,1-6.359,3.71c-.657.318,0,1.251.572.975a52.419,52.419,0,0,0,6.041-3.095c.784,5.087,1.7,10.217,2.819,15.326a24.335,24.335,0,0,0-9.92,5.49.721.721,0,0,0,1.018,1.017,25.437,25.437,0,0,1,9.263-4.875c.636,2.734,1.293,5.469,2.12,8.182a9.539,9.539,0,0,0-1.993.657,17.933,17.933,0,0,0-9.581,3.476.805.805,0,0,0,0,1.145c3.137,3.392,8.606,1.357,12.719-.933.254.869.53,1.7.784,2.544a10.6,10.6,0,0,0-1.547-.615c-2.692-.784-3.794,2.5-5.6,3.667a.891.891,0,0,0-.3-.191c-4.791-1.59-7.779,2.65-11.023,5.511-4.748,4.24-7.483,8.479-6.889,15.071a.848.848,0,0,0,1.272.721c2.756-1.7,3.392-4.748,6.741-5.893a23.551,23.551,0,0,1,6.19-.954c1.929-.127,2.332.763,3.9.763,2.692,0,4.24-2.438,5.766-4.24s3.01-3.625,4.388-5.533l.763,1.95c.339.848,1.653.551,1.4-.382L192.9,68.3c.509-.742,1-1.484,1.463-2.268a.805.805,0,0,0-.3-1.1c-.869-.488-1.717-1.06-2.586-1.653l-1.484-5.3,1.653-1.017a.806.806,0,0,0,0-1.378,5.893,5.893,0,0,0-2.565-.933c-.806-2.946-1.569-5.872-2.332-8.818.636-.254,1.251-.509,1.844-.784,5-2.311,8.733-6.359,14.1-8.076a.784.784,0,0,0-.4-1.505c-5.978,1.166-10.069,6.253-15.58,8.479l-.36.148Q184.44,36.46,182.871,28.7c2.12-1.335,4.24-2.777,6.359-4.24,3.5-2.332,7.483-3.71,10.98-5.978,1.7,9.348,5.511,17.7,9.263,26.349,4.049,9.348,6.953,19.311,10.069,29,.636,2.12,2.5,5.363,0,7.144a40.868,40.868,0,0,1-5.49,2.65A161.828,161.828,0,0,0,200.02,92.1a115.208,115.208,0,0,1-21.961,11.171c-3.434,1.272-9.624,2.8-11.722,6.232a35.526,35.526,0,0,0-.572-6.168l.954-.191c3.116-.678,6.72-2.438,6.953-5.978a.742.742,0,0,0-.742-.721,23.317,23.317,0,0,0-5.469,1.06,10.471,10.471,0,0,1-2.883.509q-.254-.869-.509-1.653a.746.746,0,1,0-1.441.382,4.715,4.715,0,0,0,.3,1.166,24.208,24.208,0,0,1-7.419-3.158c-6.359-3.434-12.93-6.571-19.4-9.814-5.236-2.628-9.624-6.359-14.711-9.136a11.447,11.447,0,0,0-9.5-1.547c-.021-11.68.806-23.508.912-35.294Zm74.191,17.361a4.781,4.781,0,0,0,.36,1.272c-3.392,1.865-7.758,3.688-10.472,1.929a22,22,0,0,1,7.25-2.692.869.869,0,0,0,.933.148,7.419,7.419,0,0,1,1.971-.594Zm2.353,7.716q.742,2.12,1.526,4.24a11.169,11.169,0,0,0-.848,1.039c-1.8,2.544-3.943,4.769-5.872,7.186-1.378,1.717-9.751,1.081-12.083,1.526-3.943.784-4.663,3.455-7.207,5.469a13.99,13.99,0,0,1,4.24-10.111c2.5-2.713,7.589-8.479,11.616-7.313h.382a.89.89,0,0,0,1.081.212,5.66,5.66,0,0,0,2.523-2.12c1.357-1.823,3.158-1.039,4.685-.064Zm-75.7,11.489c4.663-.784,9.814,3.561,13.227,6.084a110.355,110.355,0,0,0,15.707,8.585c5.575,2.883,11.447,6.762,17.3,8.9a12.083,12.083,0,0,0,3.434.784c.191.763.339,1.547.488,2.311a17.36,17.36,0,0,1-4.24-.148c-2.5-.445-5.193-3.158-7.271-4.536a37.8,37.8,0,0,0-7.356-3.37c-6.062-2.247-10.6-6.8-15.729-10.6-4.621-3.434-10.2-3.879-15.135-6.571h-.148V76.1a.806.806,0,0,0-.276-.636ZM121.7,81.42c4.918,1.463,8.776,5.109,12.719,8.267,6.02,4.854,13.27,6.529,19.5,10.938a13.566,13.566,0,0,0,10.2,2.968,36.167,36.167,0,0,1,.509,5.448c-10.3-3.455-19.756-9.412-28.638-15.559-7.5-5.151-14.987-11.531-24.25-12.952a8.288,8.288,0,0,0,.148-1.314c.488-.233.954-.488,1.42-.742A46.954,46.954,0,0,0,121.7,81.42ZM73.216,36.248h.148c.657.148,1.123-.848.466-1.145l-.318-.148a15.623,15.623,0,0,0,.678-6.635h.318a26.921,26.921,0,0,0,6.041-4.07A107.05,107.05,0,0,1,91.51,16.81c6.91-4.239,13.715-9.094,20.371-13.842-.339,3.264-.509,6.529-.636,9.793-1.166,1.357-3.031,3.031-2.713,4.685.233,1.145,1.145,1.42,2.12,1.547a4.24,4.24,0,0,0-3.54,5.427.89.89,0,0,0,.827.636,4.409,4.409,0,0,0,.911,0c-4.388,2.544-8.225,9.793-7.356,14.584-1.632.89-3.222,1.865-4.812,2.84a60.477,60.477,0,0,0,0-18.951c-.148-.636-1.229-.509-1.145.148a86.783,86.783,0,0,1-.657,19.883c-2.565,1.653-5.109,3.37-7.631,5.109a70.905,70.905,0,0,0-.424-11.616c0-.763-1.293-.784-1.208,0a65.183,65.183,0,0,1,0,12.719c-3.816,2.628-7.631,5.236-11.531,7.61a.615.615,0,0,0,.615,1.06c3.625-2.12,7.165-4.24,10.7-6.359-.212,2.12-.488,4.24-.784,6.359-3.837,1.06-7.122.127-11.15.848a3.752,3.752,0,0,1-4.24-1.441c.17-1.335.36-2.671.551-3.985.339-2.5.763-5,1.208-7.483,1.06-2.671,3.286-4.006,5.7-5.7A6.656,6.656,0,0,0,80,34.658a.848.848,0,0,0-.827-.827,4.494,4.494,0,0,0-3.752,1.1c-.678.551.191,1.59.911,1.187a4.536,4.536,0,0,1,1.971-.657c-.3,2.8-2.8,3.9-4.939,5.554a14.394,14.394,0,0,0-1.653,1.526c.339-1.738.678-3.455,1.039-5.193A2.579,2.579,0,0,0,73.216,36.248Zm38.028-21.41v2.12C110.46,16.449,110.227,15.813,111.245,14.838Zm0,5.6v1.675a2.12,2.12,0,0,1-.445.445,3.752,3.752,0,0,1-1.971.742,2.8,2.8,0,0,1,2.332-2.84ZM67.832,90.81c-1.017-2.417-.3-5.914-.806-8.479-.254-1.335-.488-2.544-.636-3.731,1.017-6.062,1.844-12.167,2.65-18.251a3.731,3.731,0,0,0,.869.721c2.12.911,4.494-.106,6.7,0a19.82,19.82,0,0,0,7.907-.848c-.212,1.463-.4,2.946-.594,4.409-2.12,3.625-5.257,8.119-5.533,8.479-2.12,2.565-5.405,5.448-6.359,8.755a15.6,15.6,0,0,0-.636,3.264q0,1.145,0,2.289v1.293C71.711,91.149,70.588,91.976,67.832,90.81Zm-1.42-41.272c-2.968,1.908-1.441,6.889-5.7,3.476a91.149,91.149,0,0,0,2.332-12.252c0-.636-1.017-.784-1.123-.148a93.015,93.015,0,0,1-2.48,11.277,6.91,6.91,0,0,1-1.887-7.716,3.688,3.688,0,0,0-.848-3.37,9.836,9.836,0,0,0-2.311-2.12c-3.307-2.523,0-5.109,1.717-7.144,1.208-1.378-.148-3.01-1.378-3.731a85.006,85.006,0,0,0-8.967-3.731c-2.12-1-1-.827.53-.339a52.977,52.977,0,0,1,5.384,2.12c2.968,1.229,5.872,2.565,8.839,3.773,3.985,1.632,7.292,4.769,11.3,6.232-.424,1.781-.933,3.434-1.166,4.685q-1.463,7.356-2.522,14.838v.848a6.847,6.847,0,0,0-1.145-1.123.784.784,0,0,0-.806,0,1.378,1.378,0,0,0-.339.276c0-1.632,0-3.646,1.335-4.6.657-.594.064-1.738-.678-1.251Zm1.42,9.094c-.127,1-.276,1.993-.4,2.989-.106-.36-.212-.742-.36-1.123C65.182,55.432,66.306,56.831,67.832,58.632ZM5.575,71.012c3.6-11.256,6.741-22.469,11-33.534C21.2,25.649,25.946,13.884,29.677,1.7a45.765,45.765,0,0,0,9.348,5.66c-6.571,15.5-12.273,31.478-17.764,47.376-.339.954,1.145,1.335,1.505.4,5.957-15.623,11.51-31.457,17.509-47.122,2.12,1.017,4.028,2.12,5.935,3.158,8.055,4.854,17.827,8.818,24.886,15.093,1.993,1.781,1.823,4.981,1.166,8.1-3.794-2.12-7.1-4.854-11.192-6.359-3.625-1.4-7.122-3.116-10.747-4.557-1.95-.784-4.875-2.311-7.059-1.738-1.569.424-.488,2.459.339,3.01s12.252,4.854,10.98,6.359c-1.865,2.12-4.24,4.24-2.925,7.271.53,1.166,2.311,2.12,3.222,2.9,1.8,1.526-.106,5.427.53,7.546a11.934,11.934,0,0,0,3.6,5.13c-.7,2.523-1.441,5.024-2.12,7.525-.572,2.12-1.081,4.24-1.569,6.359-6.359-2.734-13.354-4.43-19.587-7.568l2.12-8.733c.233-1.017,5.872-17.085,1.95-16.195-.594.127-.445,1.06.148,1.06a39.322,39.322,0,0,1-1.887,7,130.069,130.069,0,0,0-3.964,15.983,36.141,36.141,0,0,1-5.087-3.413.594.594,0,0,0-.827.827,26.454,26.454,0,0,0,5.49,4.451C31.118,72.5,28.362,83.6,24.865,94.626h0A124.664,124.664,0,0,1,10.6,87.143c-2.713-1.653-7.228-3.794-7.271-7.5a30.143,30.143,0,0,1,2.247-8.627Zm55.58,40.275c.148,2.12-14.52-2.989-15.771-3.455-7.758-2.9-15.411-6.359-23.105-9.539-7.292-2.9-19.841-7.419-20.689-16.449a21.008,21.008,0,0,1,0-2.311c0,3.476,2.12,5.151,4.918,7.25A89.39,89.39,0,0,0,24.95,96.7c7.271,3.01,14.838,5.321,21.939,8.712,4.706,2.247,8.818,5.49,14.1,5.617l.254.127a.912.912,0,0,0-.085.233ZM90.174,96.258c-4.451,2.12-8.691,4.494-12.973,6.91-4.706,2.65-9.2,6.232-14.16,8.479a1.717,1.717,0,0,1,0-.339,1.1,1.1,0,0,0-.339-.657c5.13-2.544,9.751-5.829,14.52-8.9,5.575-3.731,11.51-6.741,17.34-10.005,4.685-2.607,9.433-4.918,14.2-7.313l.254-.148c-3.731,5.914-13.036,9.369-18.845,12.083Zm19.82-17.764c-1.293.763-2.8,1.357-3.5,1.759-2.628,1.569-5.109,3.116-7.652,4.536a164.284,164.284,0,0,1-15.559,8.479c-8.2,3.773-18,12.252-26.857,7.843a23.317,23.317,0,0,0,12.21-1.844c2.862-1.463,5.045-3.667,7.737-5.363s6.211-2.12,9.115-3.328A107.407,107.407,0,0,0,101.9,81.038a79.344,79.344,0,0,1,8.182-5.639c0,.594,0,1.166,0,1.759a9.542,9.542,0,0,1-.085,1.441Zm.233-7.165a17.958,17.958,0,0,1-.148,2.819,28.3,28.3,0,0,0-7.589,3.943c1.844-9.793,0-19.841,1.8-29.677.148-.763-1.017-1.1-1.166-.318-2.12,10.154-.127,20.562-2.247,30.715a.615.615,0,0,0,0,.339c-2.883,1.95-5.427,3.837-6.1,4.24a87.462,87.462,0,0,1-8.627,4.981c-2.989,1.463-6.359,1.823-9.348,3.307a77.622,77.622,0,0,0-7.631,5.278c-4.24,2.9-10.874,2.84-15.75,1.993a.424.424,0,0,0-.233,0,.678.678,0,0,0-.89.869.763.763,0,0,0,.636.869h.276c7.292,6.232,16.216,1.823,23.678-2.332,5.469-3.031,11.129-5.6,16.6-8.627s10.6-6.232,15.856-9.221a8.479,8.479,0,0,1-4.685,3.54A145.924,145.924,0,0,0,90.3,91.785c-10.005,5.49-19.184,12.4-29.316,17.636h0c-5.893-.466-11.213-4.833-16.47-7.207-2.12-.975-4.367-1.844-6.592-2.671a90.366,90.366,0,0,0,6.168-25.352c.127-.89-1.378-1.081-1.526-.212A218.329,218.329,0,0,1,36.778,99.2c-2.629-.975-5.3-1.929-7.907-2.946L26.349,95.2l.127-.212c3.476-10.853,6.168-21.855,8.755-32.941,5.978,3.349,13.079,5.278,19.608,7.695-1.166,5.427-2.12,10.9-3.455,16.259a.784.784,0,0,0,1.505.424c1.59-5.236,2.565-10.6,3.646-16.025a53.4,53.4,0,0,1,5.109,2.311.763.763,0,0,0,.763-1.314,40.486,40.486,0,0,0-5.469-3.01c.466-2.12.954-4.43,1.526-6.614s1.251-4.621,1.844-6.91a13.948,13.948,0,0,0,4.451,2.12.869.869,0,0,0,.233,0,5.85,5.85,0,0,0,0,2.523c.89,3.137,1.781,5.278.954,8.627a35.463,35.463,0,0,0-1.59,7.1,26.772,26.772,0,0,0,.254,4.494c-.318,1.887-.615,3.794-.933,5.7-.17.911,1.208,1.314,1.378.382.106-.445.191-.89.276-1.357a41.485,41.485,0,0,1,.551,4.854c0,1.251.933,4.939,2.777,5.215,5.193.806,3.964-8.649,4.494-11.489.869-4.6,6.359-9.03,9.242-12.591.339-.424.678-.848,1-1.293a84.394,84.394,0,0,0-.445,9.285.742.742,0,0,0,1.484,0c.3-4.24.827-8.649,1.357-12.973a32.877,32.877,0,0,0,2.48-6.1.869.869,0,0,0-.615-1.06l-.509-.17a.551.551,0,0,0-.445-.4c.254-2.289.445-4.579.572-6.889,2.5-1.547,4.981-3.137,7.462-4.706-.17,1.738-.339,3.455-.445,5.172-.572,9.793-2.268,19.65-1.7,29.486a.721.721,0,0,0,1.42,0c.276-9.878,1.166-19.629,1.823-29.486.148-2.12.36-4.24.615-6.253,1.908-1.229,3.837-2.438,5.787-3.646a4.006,4.006,0,0,0,.721.975c1.908,1.908,5.066-.869,6.614-1.929a17.531,17.531,0,0,1,1.59-.954C111.1,50.153,110.842,60.752,110.227,71.33Zm.339-33.174c-1.865.89-5.511,4.685-6.72,2.417q2.4-1.463,4.769-2.862a.684.684,0,1,0-.678-1.187c-1.526.657-3.01,1.378-4.473,2.12-.212-4.706,3.074-11.4,7.695-12.952V37.838A4.24,4.24,0,0,0,110.566,38.156Zm39.767,67.832c-5.723-3.561-11.807-6.084-17.276-10.111A86.909,86.909,0,0,0,119,86.783c-1.993-.933-5.257-3.2-7.546-3.01a1.23,1.23,0,0,0-.3,0,9.115,9.115,0,0,0,.636-1.547h0c9.73,1.8,17.7,9.2,25.691,14.542a111.711,111.711,0,0,0,27.133,14.351c0,.466,0,.954,0,1.441a42.077,42.077,0,0,1-14.287-6.72Zm15.008-6.19a14.244,14.244,0,0,0,2.48-.657c-.127,0,4.579-1.145,3.328.254a10.154,10.154,0,0,1-5.7,2.544c-.148-.721-.318-1.42-.488-2.12Zm46.635-11.489c-5.321,3.116-10.6,6.359-16.068,9.157s-10.6,5.257-15.792,8.076c-4.388,2.565-8.755,5.6-13.863,6.8a14.347,14.347,0,0,0,0-1.653.721.721,0,0,0,1.251,0c1.8-3.519,8.755-4.96,12.146-6.211A83.263,83.263,0,0,0,192.9,98.357c6.359-3.625,12.379-7.737,18.717-11.383,2.268-1.314,6.359-2.4,8.861-4.451-1.632,2.756-5.766,4.388-8.309,5.787Z" fill="#000000"/>
        <path id="Path_1046" data-name="Path 1046" d="M23.741,67.832c-.848-.276-1.42,1.06-.615,1.441,3.6,1.653,4.006,4.621,2.014,7.864a7.7,7.7,0,0,1-9.984,3.074,6.359,6.359,0,0,1-3.349-8.14,9.073,9.073,0,0,1,8.479-5.787.551.551,0,0,0,0-1.1,10.09,10.09,0,0,0-10.238,6.889,8.076,8.076,0,0,0,5.109,9.963,9.539,9.539,0,0,0,11.786-4.557,6.232,6.232,0,0,0-3.2-9.645Z" fill="#000000"/>
        <path id="Path_1047" data-name="Path 1047" d="M18.611,67.938c-.678.4-.212,1.632.572,1.335l.424-.212a28.045,28.045,0,0,0-1.844,3.116,8.161,8.161,0,0,1-1.717-1.1,2.12,2.12,0,0,0,.721-.445c.615-.572-.3-1.441-.911-.911a1.7,1.7,0,0,1-.848.36.7.7,0,0,0-.551,0,.572.572,0,0,0-1.06-.191c-.742,1.1.17,3.2,1.1,3.964.551.445,1.526-.148,1.06-.806a5.257,5.257,0,0,1-.572-.975,9.581,9.581,0,0,0,2.12,1.505,29.062,29.062,0,0,0-1.675,4.706,2.756,2.756,0,0,0-.276-.869c-.276-.615-1.208,0-.911.53a2.332,2.332,0,0,1,.191,1.081.53.53,0,0,0,.933.318.763.763,0,0,0,1.314,0,.466.466,0,0,0,.594.148,3.18,3.18,0,0,0,1.8-1.229.657.657,0,0,0-1.123-.657,2.12,2.12,0,0,1-.636.594c.551-1.272,1.06-2.565,1.569-3.858,1.335.551,2.734,1,4.006,1.505a3.37,3.37,0,0,0-.7.933c-.382.678.551,1.463,1.081.848s.615-.827.975-1.187a.636.636,0,0,0,.848-.657,3.964,3.964,0,0,0-.657-1.929c-.36-.572-1.314-.276-1.251.339-1.187-.509-2.48-.89-3.731-1.335a32.094,32.094,0,0,1,1.569-3.349,4.409,4.409,0,0,0,.382,1.272c.36.721,1.335.17,1.208-.509A25.428,25.428,0,0,1,22,67.493a.551.551,0,0,0-1-.3h-.3a11.68,11.68,0,0,0-2.1.742Z" fill="#000000"/>
        <path id="Path_1048" data-name="Path 1048" d="M116.311,65.416a.556.556,0,0,0-.572.954c12.485,8.712,27.09,13.863,39.745,22.385.827.551,1.547-.763.763-1.335C144.143,78.431,129.6,72.538,116.311,65.416Z" fill="#000000"/>
        <path id="Path_1049" data-name="Path 1049" d="M211.064,69.231a.8.8,0,1,0-.784-1.4c-.466.233-.911.488-1.357.742l-.7-1.759a15.007,15.007,0,0,0,1.039-1.887.89.89,0,0,0-.318-1.166,5.045,5.045,0,0,0-2.289-1.123h0c-.339-.954-.678-1.908-.975-2.883A53.333,53.333,0,0,0,198.112,42.8c-.424-.551-1.378,0-.975.572A61.642,61.642,0,0,1,204.09,60.2c.466,1.569,1,3.137,1.547,4.685a26.475,26.475,0,0,0-3.71,2.946c-1.463,1.229-4.748,3.646-4.24,5.957a1.717,1.717,0,0,0,.488.869,222.578,222.578,0,0,1-23.7,12.719c-.572.254-.17,1.229.424,1.017a139.755,139.755,0,0,0,32.962-16.958,81.073,81.073,0,0,1,2.819,8.479c.212.763,1.526.636,1.42-.191a40.954,40.954,0,0,0-2.607-9.518Zm-9.5,2.84c-.17.127-2.12,1.4-2.12,1.187,0-1.484,3.052-3.646,4.028-4.451s1.8-1.4,2.734-2.12h0V66.9c-.636.848-1.357,1.653-1.971,2.374A22.385,22.385,0,0,1,201.567,72.072Zm3.752-1.441c.572-.615,1.1-1.229,1.611-1.887l.318.827Z" fill="#000000"/>
      </g>
    </g>
  </g>
</svg>
