<svg xmlns="http://www.w3.org/2000/svg" width="223" height="190.999" viewBox="0 0 223 190.999">
  <g id="Group_401" data-name="Group 401" transform="translate(12365 1549)">
    <g id="_x31_1" transform="translate(-12365 -1549)">
      <g id="Group_398" data-name="Group 398" transform="translate(0 0)">
        <g id="Group_397" data-name="Group 397">
          <g id="Group_388" data-name="Group 388" transform="translate(3.263 40.666)">
            <path id="Path_973" data-name="Path 973" d="M56.809,187.72c-9.264,0-18.528-.082-27.573-.266a25.412,25.412,0,0,1-24.858-24.4c-.566-14.816-1.349-29.856-2.108-44.4C1.445,102.829.591,86.463.016,70.314A26.465,26.465,0,0,1,26.085,42.908c28.144-.414,56.936-1.872,84.778-3.284,15.665-.793,31.864-1.614,47.694-2.235a2.437,2.437,0,0,1,2.538,2.3c2.009,32.956,2,35.658,1.989,39.747,0,1.752-.01,3.74.148,8.6a2.447,2.447,0,1,1-4.89.16c-.162-4.942,1.051-6.961,1.056-8.755.011-3.9,1.014-6.943-.841-37.487-15.038.606-32.83.208-47.694.962-27.885,1.413-56.543,2.9-84.778,3.318-5.766.085-12.158,3.434-16.129,7.609a23.868,23.868,0,0,0-6.1,16.479c.573,16.111.818,32.535,1.643,48.342.588,11.283.807,22.283,1.788,34.089.25,3.011-.128,8.936,0,12.277.412,10.822,10.018,19.38,20.856,19.6,51.533,1.059,112.992-1.226,135.086-2.6-.511-7.778,3,15.385,0-18.967-.857-15.564-2.176-23.55-2.137-25.779.024-1.317-1.047,4.593-1.21,0a2.448,2.448,0,0,1,2.358-2.533h.089a2.447,2.447,0,0,1,2.444,2.359c.168,4.725.14,6.288.116,7.667-.051,2.843-.084,4.724,2.063,37.254a2.449,2.449,0,0,1-2.278,2.6C148.095,185.745,102.561,187.72,56.809,187.72Z" transform="translate(0 -37.386)" fill="#000000"/>
          </g>
          <g id="Group_389" data-name="Group 389" transform="translate(20.463 56.723)">
            <path id="Path_974" data-name="Path 974" d="M53.022,170.118h-.686a2.447,2.447,0,0,1,0-4.895h.686c1.8,0,3.733-.023,5.792-.065a2.448,2.448,0,0,1,.1,4.895C56.818,170.1,54.849,170.118,53.022,170.118Zm-15.354-.209c-.041,0-.085,0-.127,0a57.285,57.285,0,0,1-6.772-.689,2.447,2.447,0,1,1,.838-4.821,52.957,52.957,0,0,0,6.186.621,2.447,2.447,0,0,1-.124,4.892Zm35.881-.364a2.446,2.446,0,0,1-.107-4.89c2.108-.094,4.282-.2,6.51-.308a2.447,2.447,0,1,1,.243,4.887q-3.355.165-6.535.308C73.622,169.545,73.586,169.545,73.549,169.545Zm21.193-1.08a2.448,2.448,0,0,1-.132-4.892l6.518-.36a2.447,2.447,0,1,1,.271,4.887l-6.522.361C94.833,168.462,94.787,168.464,94.742,168.464Zm21.19-1.173a2.447,2.447,0,0,1-.131-4.89l6.522-.349a2.447,2.447,0,1,1,.258,4.887l-6.517.349C116.021,167.29,115.977,167.292,115.932,167.292Zm21.192-1.074a2.447,2.447,0,0,1-.11-4.89q3.286-.15,6.535-.287a2.447,2.447,0,0,1,.2,4.89q-3.234.134-6.512.284C137.2,166.216,137.162,166.218,137.124,166.218Zm21.206-.8a2.447,2.447,0,0,1-.064-4.893l3.758-.095a2.448,2.448,0,1,1,.114,4.894S158.4,165.421,158.331,165.423ZM20.366,160.794a2.446,2.446,0,0,1-2.328-1.694,33.982,33.982,0,0,1-1.326-6.885,2.447,2.447,0,1,1,4.869-.5,29.19,29.19,0,0,0,1.112,5.882,2.446,2.446,0,0,1-1.574,3.082A2.52,2.52,0,0,1,20.366,160.794Zm-1.708-21.04a2.447,2.447,0,0,1-2.447-2.448q0-3.061.034-6.543a2.473,2.473,0,0,1,2.466-2.428,2.447,2.447,0,0,1,2.428,2.466q-.026,3.467-.034,6.508A2.446,2.446,0,0,1,18.659,139.754Zm.127-21.207a2.448,2.448,0,0,1-2.447-2.454v-2.034q0-2.287-.025-4.458a2.448,2.448,0,0,1,4.895-.054q.024,2.2.025,4.512v2.047A2.446,2.446,0,0,1,18.786,118.546Zm-.364-21.2a2.446,2.446,0,0,1-2.444-2.376c-.069-2.315-.129-4.5-.164-6.552a2.449,2.449,0,0,1,2.406-2.489,2.39,2.39,0,0,1,2.489,2.406c.035,2.037.1,4.2.161,6.492A2.463,2.463,0,0,1,18.421,97.343Zm.523-21.16a2.5,2.5,0,0,1-.419-.035,2.448,2.448,0,0,1-2-2.828,24.9,24.9,0,0,1,2.122-6.867,2.448,2.448,0,1,1,4.388,2.173,19.949,19.949,0,0,0-1.686,5.525A2.45,2.45,0,0,1,18.945,76.184Zm13.123-14.9a2.447,2.447,0,0,1-.759-4.773,51.133,51.133,0,0,1,6.635-1.636,2.448,2.448,0,0,1,.885,4.814,45.954,45.954,0,0,0-6,1.474A2.445,2.445,0,0,1,32.068,61.284Zm20.886-3.158a2.447,2.447,0,0,1-.148-4.889q3.1-.191,6.569-.319a2.4,2.4,0,0,1,2.538,2.353,2.448,2.448,0,0,1-2.353,2.538q-3.412.127-6.453.312C53.055,58.125,53,58.126,52.954,58.126ZM74.133,57.5a2.447,2.447,0,0,1-.024-4.895q3.152-.031,6.538-.041a2.447,2.447,0,1,1,.015,4.895C78.417,57.464,76.248,57.477,74.133,57.5Zm21.2-.053a2.447,2.447,0,0,1,0-4.894l6.518-.008a2.447,2.447,0,1,1,.007,4.895S95.333,57.444,95.332,57.444Zm21.189-.041a2.447,2.447,0,0,1-.01-4.895l6.514-.03a2.447,2.447,0,0,1,.028,4.895S116.53,57.4,116.521,57.4Zm21.174-.158a2.447,2.447,0,0,1-.036-4.894c4.4-.063,5.656-.126,6-.151a2.42,2.42,0,0,1,.507-.052A2.448,2.448,0,0,1,146.61,54.6c0,2.386-2.427,2.489-3.339,2.527C142.391,57.158,140.753,57.2,137.694,57.245Z" transform="translate(-15.813 -52.148)" fill="#000000"/>
          </g>
          <g id="Group_390" data-name="Group 390" transform="translate(104.039 84.201)">
            <path id="Path_975" data-name="Path 975" d="M110.658,138.4a24.783,24.783,0,0,1-24.663-23.02l-.585-8.415a22.6,22.6,0,0,1,22.548-24.192h.16c18.594.137,37.022-.6,54.242-1.357a2.46,2.46,0,0,1,2.546,2.255c.716,9.121,1.254,18.382,1.773,27.338.411,7.057.834,14.354,1.341,21.525a2.449,2.449,0,0,1-2.3,2.615q-7.931.472-15.892.922c-12.305.707-25.029,1.439-37.509,2.273C111.765,138.376,111.209,138.4,110.658,138.4Zm-5.02-51.989c-4.875,0-8.149,2.077-11.486,5.633A22.04,22.04,0,0,0,88.8,106.961v8.415c.76,10.885,12.65,20.509,23.523,19.768,12.5-.836,25.193-1.908,37.509-2.615,4.477-.257,10.609-1.67,15.074-1.931-.435-6.4-1.575-13.329-1.939-19.594a200.494,200.494,0,0,0-.607-24.6c-2.477.107-4.955-.858-8.016-1.11-3.79-.311-8.3,0-12.753,0-11.527-.007-23.723,1.194-34.887,1.11C106.66,86.4,105.679,86.406,105.638,86.406Z" transform="translate(-85.355 -77.059)" fill="#000000"/>
            <path id="Path_982" data-name="Path 982" d="M110.658,138.4a24.783,24.783,0,0,1-24.663-23.02l-.585-8.415a22.6,22.6,0,0,1,22.548-24.192h.16c18.594.137,37.022-.6,54.242-1.357a2.46,2.46,0,0,1,2.546,2.255c.716,9.121,1.254,18.382,1.773,27.338.411,7.057.834,14.354,1.341,21.525a2.449,2.449,0,0,1-2.3,2.615q-7.931.472-15.892.922c-12.305.707-25.029,1.439-37.509,2.273C111.765,138.376,111.209,138.4,110.658,138.4Zm-5.02-51.989c-4.875,0-8.149,2.077-11.486,5.633A22.04,22.04,0,0,0,88.8,106.961v8.415c.76,10.885,12.65,20.509,23.523,19.768,12.5-.836,25.193-1.908,37.509-2.615,4.477-.257,10.609-1.67,15.074-1.931-.435-6.4-1.575-13.329-1.939-19.594a200.494,200.494,0,0,0-.607-24.6c-2.477.107-4.955-.858-8.016-1.11-3.79-.311-8.3,0-12.753,0-11.527-.007-23.723,1.194-34.887,1.11C106.66,86.4,105.679,86.406,105.638,86.406Z" transform="translate(-85.355 -81.41)" fill="#000000" opacity="0.414"/>
          </g>
          <g id="Group_391" data-name="Group 391" transform="translate(118.407 101.187)">
            <path id="Path_976" data-name="Path 976" d="M114.532,124.739a14.637,14.637,0,0,1-14.764-14.823A17.371,17.371,0,0,1,105.5,97.2a15.727,15.727,0,0,1,8.109-4.019,14.819,14.819,0,0,1,2.081-.15c10.221,0,15.8,10.575,15.8,16.008C131.486,115.286,124.725,124.739,114.532,124.739Zm1.156-29.257c-.454,0-3.745-.066-4.213,0-1.825.261-3.07,2.412-4.686,3.891a13.868,13.868,0,0,0-4.32,9.661c0,2.135-.3,4.752,1.132,6.975,2.32,3.63,7.729,6.172,10.93,6.172a15.073,15.073,0,0,0,10.69-4.977c2.584-2.671,4.371-6.594,4.371-8.169,0-1.346-1.55-5.639-4.371-9.661C122.989,96.183,119.291,95.482,115.688,95.482Z" transform="translate(-99.768 -93.026)" fill="#000000"/>
          </g>
          <g id="Group_392" data-name="Group 392" transform="translate(47.989)">
            <path id="Path_977" data-name="Path 977" d="M145.54,45.972a2.441,2.441,0,0,1-2.034-1.086c-.743-1.109,1.608-2.367.772-3.834-3.548-6.22-9.376-13.454-13.064-19.514-4.326-7.106-8.171-13.188-11.806-19.229-13.174,6.74-27.5,14.744-40.164,20.931-13.128,6.412-27.486,13.022-40.86,18.754-1.241.529-.753,1.244-1.286,0a2.019,2.019,0,0,1,1.286-2.8c12.765-5.47,25.537-11.275,38.636-17.651C90.22,15.115,103.77,7.67,118.222.271a2.443,2.443,0,0,1,3.216.923c7.286,12.2,15.589,25.218,26.134,40.967a2.449,2.449,0,0,1-2.032,3.81Z" transform="translate(-36.901 0)" fill="#000000"/>
          </g>
          <g id="Group_393" data-name="Group 393" transform="translate(171.826 57.139)">
            <path id="Path_978" data-name="Path 978" d="M160.849,149.922a2.44,2.44,0,0,1-1.966-.988c-.806-1.086.881-1.263,1.966-2.07,10.845-8.057,25.283-14.328,33.288-21.684-12.226-19.666-27.766-42.066-40.544-60.756-2.469-3.611-4.43-6.251-6.89-9.861-.761-1.117-2.294-.848-1.177-1.607a2.446,2.446,0,0,1,3.4.644q3.689,5.412,7.392,10.824c13.263,19.4,26.978,39.461,39.623,59.947a2.448,2.448,0,0,1-.811,3.377c-9.216,5.593-21.275,13.113-32.822,21.693A2.451,2.451,0,0,1,160.849,149.922Z" transform="translate(-145.131 -52.531)" fill="#000000"/>
          </g>
          <g id="Group_394" data-name="Group 394" transform="translate(183.096 138.178)">
            <path id="Path_979" data-name="Path 979" d="M157.772,160.73a2.44,2.44,0,0,1-2.12-1.224c-.675-1.171.951-.014,2.12-.689,4.989-2.879,10.486-5.2,15.361-7.845,3.6-1.955,10.42-6.148,14.051-8.191-.768-1.067-3.448-4.568-4.211-5.646-1.807-2.554-4.58-5.7-6.5-8.206-.822-1.072-2.6-.57-1.524-1.391a2.444,2.444,0,0,1,3.43.455c1.981,2.582,3.877,5.262,5.71,7.854,1.278,1.806,2.552,3.607,3.854,5.377a2.446,2.446,0,0,1-.755,3.574c-4.424,2.531-8.986,5.009-13.4,7.4-4.846,2.632-9.858,5.355-14.792,8.2A2.442,2.442,0,0,1,157.772,160.73Z" transform="translate(-155.493 -127.033)" fill="#000000"/>
          </g>
          <g id="Group_395" data-name="Group 395" transform="translate(104.852 21.296)">
            <path id="Path_980" data-name="Path 980" d="M90.411,35.734a2.447,2.447,0,0,1-.886-4.728,37.027,37.027,0,0,0,8.215-5.088c4.187-3.116,8.516-6.339,13.941-6.339,2.825,0,4.194,2.656,5.4,5,.811,1.574,1.731,3.358,2.852,4.057a2.45,2.45,0,0,1,.779,3.373c-.717,1.145.365.716-.779,0-2.26-1.413-3.822-4.063-4.869-6.09a45.015,45.015,0,0,0-3.387-4.06c-3.683.137-9.033,3.6-12.643,6.287-2.882,2.146-6.015,4.669-9.513,6.03C89.232,34.288,90.706,35.734,90.411,35.734Z" transform="translate(-87.964 -19.578)" fill="#000000"/>
          </g>
          <g id="Group_396" data-name="Group 396" transform="translate(186.413 112.345)">
            <path id="Path_981" data-name="Path 981" d="M160.615,129.18a2.441,2.441,0,0,1-1.882-.881c-.865-1.037,1.426-.7,2.465-1.561a68.6,68.6,0,0,1,10.2-7.022,61.266,61.266,0,0,0,5.521-3.828c-.68-1.416-7.458-7.581-10.393-10.149-1.018-.891-2.653-.6-1.762-1.618a2.444,2.444,0,0,1,3.452-.231c7.114,6.224,9.989,8.874,9.7,12-.244,2.605-2.571,3.978-5.794,5.882a70.129,70.129,0,0,0-9.944,6.843A2.453,2.453,0,0,1,160.615,129.18Zm14.141-12.553Z" transform="translate(-158.542 -103.284)" fill="#000000"/>
          </g>
          <g id="Group_399" data-name="Group 399" transform="translate(24.814 56.723)" opacity="0.321">
            <path id="Path_974-2" data-name="Path 974" d="M53.022,170.118h-.686a2.447,2.447,0,0,1,0-4.895h.686c1.8,0,3.733-.023,5.792-.065a2.448,2.448,0,0,1,.1,4.895C56.818,170.1,54.849,170.118,53.022,170.118Zm-15.354-.209c-.041,0-.085,0-.127,0a57.285,57.285,0,0,1-6.772-.689,2.447,2.447,0,1,1,.838-4.821,52.957,52.957,0,0,0,6.186.621,2.447,2.447,0,0,1-.124,4.892Zm35.881-.364a2.446,2.446,0,0,1-.107-4.89c2.108-.094,4.282-.2,6.51-.308a2.447,2.447,0,1,1,.243,4.887q-3.355.165-6.535.308C73.622,169.545,73.586,169.545,73.549,169.545Zm21.193-1.08a2.448,2.448,0,0,1-.132-4.892l6.518-.36a2.447,2.447,0,1,1,.271,4.887l-6.522.361C94.833,168.462,94.787,168.464,94.742,168.464Zm21.19-1.173a2.447,2.447,0,0,1-.131-4.89l6.522-.349a2.447,2.447,0,1,1,.258,4.887l-6.517.349C116.021,167.29,115.977,167.292,115.932,167.292Zm21.192-1.074a2.447,2.447,0,0,1-.11-4.89q3.286-.15,6.535-.287a2.447,2.447,0,0,1,.2,4.89q-3.234.134-6.512.284C137.2,166.216,137.162,166.218,137.124,166.218Zm21.206-.8a2.447,2.447,0,0,1-.064-4.893l3.758-.095a2.448,2.448,0,1,1,.114,4.894S158.4,165.421,158.331,165.423ZM20.366,160.794a2.446,2.446,0,0,1-2.328-1.694,33.982,33.982,0,0,1-1.326-6.885,2.447,2.447,0,1,1,4.869-.5,29.19,29.19,0,0,0,1.112,5.882,2.446,2.446,0,0,1-1.574,3.082A2.52,2.52,0,0,1,20.366,160.794Zm-1.708-21.04a2.447,2.447,0,0,1-2.447-2.448q0-3.061.034-6.543a2.473,2.473,0,0,1,2.466-2.428,2.447,2.447,0,0,1,2.428,2.466q-.026,3.467-.034,6.508A2.446,2.446,0,0,1,18.659,139.754Zm.127-21.207a2.448,2.448,0,0,1-2.447-2.454v-2.034q0-2.287-.025-4.458a2.448,2.448,0,0,1,4.895-.054q.024,2.2.025,4.512v2.047A2.446,2.446,0,0,1,18.786,118.546Zm-.364-21.2a2.446,2.446,0,0,1-2.444-2.376c-.069-2.315-.129-4.5-.164-6.552a2.449,2.449,0,0,1,2.406-2.489,2.39,2.39,0,0,1,2.489,2.406c.035,2.037.1,4.2.161,6.492A2.463,2.463,0,0,1,18.421,97.343Zm.523-21.16a2.5,2.5,0,0,1-.419-.035,2.448,2.448,0,0,1-2-2.828,24.9,24.9,0,0,1,2.122-6.867,2.448,2.448,0,1,1,4.388,2.173,19.949,19.949,0,0,0-1.686,5.525A2.45,2.45,0,0,1,18.945,76.184Zm13.123-14.9a2.447,2.447,0,0,1-.759-4.773,51.133,51.133,0,0,1,6.635-1.636,2.448,2.448,0,0,1,.885,4.814,45.954,45.954,0,0,0-6,1.474A2.445,2.445,0,0,1,32.068,61.284Zm20.886-3.158a2.447,2.447,0,0,1-.148-4.889q3.1-.191,6.569-.319a2.4,2.4,0,0,1,2.538,2.353,2.448,2.448,0,0,1-2.353,2.538q-3.412.127-6.453.312C53.055,58.125,53,58.126,52.954,58.126ZM74.133,57.5a2.447,2.447,0,0,1-.024-4.895q3.152-.031,6.538-.041a2.447,2.447,0,1,1,.015,4.895C78.417,57.464,76.248,57.477,74.133,57.5Zm21.2-.053a2.447,2.447,0,0,1,0-4.894l6.518-.008a2.447,2.447,0,1,1,.007,4.895S95.333,57.444,95.332,57.444Zm21.189-.041a2.447,2.447,0,0,1-.01-4.895l6.514-.03a2.447,2.447,0,0,1,.028,4.895S116.53,57.4,116.521,57.4Zm21.174-.158a2.447,2.447,0,0,1-.036-4.894c4.4-.063,5.656-.126,6-.151a2.42,2.42,0,0,1,.507-.052A2.448,2.448,0,0,1,146.61,54.6c0,2.386-2.427,2.489-3.339,2.527C142.391,57.158,140.753,57.2,137.694,57.245Z" transform="translate(-15.813 -52.148)" fill="#000000"/>
          </g>
          <g id="Group_400" data-name="Group 400" transform="translate(0 40.666)" opacity="0.26">
            <path id="Path_973-2" data-name="Path 973" d="M56.809,187.72c-9.264,0-18.528-.082-27.573-.266a25.412,25.412,0,0,1-24.858-24.4c-.566-14.816-1.349-29.856-2.108-44.4C1.445,102.829.591,86.463.016,70.314A26.465,26.465,0,0,1,26.085,42.908c28.144-.414,56.936-1.872,84.778-3.284,15.665-.793,31.864-1.614,47.694-2.235a2.437,2.437,0,0,1,2.538,2.3c2.009,32.956,2,35.658,1.989,39.747,0,1.752-.01,3.74.148,8.6a2.447,2.447,0,1,1-4.89.16c-.162-4.942,1.051-6.961,1.056-8.755.011-3.9,1.014-6.943-.841-37.487-15.038.606-32.83.208-47.694.962-27.885,1.413-56.543,2.9-84.778,3.318-5.766.085-12.158,3.434-16.129,7.609a23.868,23.868,0,0,0-6.1,16.479c.573,16.111.818,32.535,1.643,48.342.588,11.283.807,22.283,1.788,34.089.25,3.011-.128,8.936,0,12.277.412,10.822,10.018,19.38,20.856,19.6,51.533,1.059,112.992-1.226,135.086-2.6-.511-7.778,3,15.385,0-18.967-.857-15.564-2.176-23.55-2.137-25.779.024-1.317-1.047,4.593-1.21,0a2.448,2.448,0,0,1,2.358-2.533h.089a2.447,2.447,0,0,1,2.444,2.359c.168,4.725.14,6.288.116,7.667-.051,2.843-.084,4.724,2.063,37.254a2.449,2.449,0,0,1-2.278,2.6C148.095,185.745,102.561,187.72,56.809,187.72Z" transform="translate(0 -37.386)" fill="#000000"/>
          </g>
        </g>
      </g>
    </g>
    <path id="Path_983" data-name="Path 983" d="M-12337.482-1441.312c65.517-1.216,48.649-2.035,64.869-2.714s-48.653,3.978-64.869,5.3" transform="translate(0.238 9.204)" fill="none" stroke="#000000" stroke-linecap="round" stroke-linejoin="round" stroke-width="1"/>
    <path id="Path_991" data-name="Path 991" d="M-12337.482-1441.312c127.1-1.216,94.378-2.035,125.836-2.714s-94.378,3.978-125.836,5.3" transform="translate(1.496 -57.148)" fill="none" stroke="#000000" stroke-linecap="round" stroke-linejoin="round" stroke-width="1"/>
    <path id="Path_984" data-name="Path 984" d="M-12337.482-1441.312c65.517-1.216,48.649-2.035,64.869-2.714s-48.653,3.978-64.869,5.3" transform="translate(0.238 11.889)" fill="none" stroke="#000000" stroke-linecap="round" stroke-linejoin="round" stroke-width="1"/>
    <path id="Path_992" data-name="Path 992" d="M-12327.384-1441.879c136.817-1.216,90.61-1.467,124.475-2.146s-90.61,3.012-124.475,4.338" transform="translate(-7.622 -54.464)" fill="none" stroke="#000000" stroke-linecap="round" stroke-linejoin="round" stroke-width="1"/>
    <path id="Path_993" data-name="Path 993" d="M-12327.384-1441.879c136.817-1.216,90.61-1.467,124.475-2.146s-90.61,3.012-124.475,4.338" transform="translate(1.208 76.847)" fill="none" stroke="#000000" stroke-linecap="round" stroke-linejoin="round" stroke-width="1"/>
    <path id="Path_985" data-name="Path 985" d="M-12337.482-1441.312c65.517-1.216,48.649-2.035,64.869-2.714s-48.653,3.978-64.869,5.3" transform="translate(0.238 14.575)" fill="none" stroke="#000000" stroke-linecap="round" stroke-linejoin="round" stroke-width="1"/>
    <path id="Path_986" data-name="Path 986" d="M-12337.482-1441.312c65.517-1.216,48.649-2.035,64.869-2.714s-48.653,3.978-64.869,5.3" transform="translate(0.238 17.261)" fill="none" stroke="#000000" stroke-linecap="round" stroke-linejoin="round" stroke-width="1"/>
    <path id="Path_987" data-name="Path 987" d="M1.68,20.317A107.954,107.954,0,0,0,2.223.727c0-.956-1.6-.982-1.525,0C1.344,7.266.181,13.649,0,20.317-.026,21.4,1.6,21.377,1.68,20.317Z" transform="matrix(-0.07, -0.998, 0.998, -0.07, -12249.989, -1465.551)" fill="#000000"/>
    <path id="Path_989" data-name="Path 989" d="M1.68.8a107.956,107.956,0,0,1,.543,19.59c0,.956-1.6.982-1.525,0C1.344,13.856.181,7.472,0,.8-.026-.281,1.6-.255,1.68.8Z" transform="matrix(0.07, -0.998, 0.998, 0.07, -12246.711, -1396.322)" fill="#000000"/>
    <path id="Path_988" data-name="Path 988" d="M0,19.665C2.961,9.245.961,6.607.547.074c0-.956.241,7.64.318,8.622.646,6.539.187-5.174.006,1.494C.846,11.275-.073,20.724,0,19.665Z" transform="translate(-12270.435 -1447.443) rotate(-150)" fill="#000000"/>
    <path id="Path_990" data-name="Path 990" d="M0,.083C2.961,10.5.961,13.14.547,19.673c0,.956.241-7.64.319-8.622.646-6.539.187,5.174.006-1.494C.846,8.472-.073-.977,0,.083Z" transform="translate(-12259.402 -1399.551) rotate(150)" fill="#000000"/>
  </g>
</svg>
