<svg xmlns="http://www.w3.org/2000/svg" width="223" height="228" viewBox="0 0 223 228">
  <g id="Layer_2" data-name="Layer 2" transform="translate(0.001 0.025)">
    <g id="Pictures" transform="translate(-0.001 -0.025)">
      <path id="Path_994" data-name="Path 994" d="M41.3,6.33c1.438,0,2.851-.141,4.265,0,1.98,0,2.168,2.168,2.357,3.723.471,2.592.377,5.255.8,7.848.141.848,1.532.66,1.485-.189a42.112,42.112,0,0,0-.99-10.133C48.109,3.69,44.5,5.01,41.322,5.222,40.615,5.222,40.592,6.353,41.3,6.33Z" transform="translate(130.123 6.62)" fill="#000000"/>
      <path id="Path_995" data-name="Path 995" d="M7.071,55.645c3.7.707,7.376-2.357,10.44-3.912.8-.4,0-1.508-.683-1.178-3.064,1.343-6.08,3.912-9.568,3.818C6.529,54.373,6.364,55.5,7.071,55.645Z" transform="translate(8.98 150.391)" fill="#000000"/>
      <path id="Path_996" data-name="Path 996" d="M17.006,50.48a22.6,22.6,0,0,0,5.986-3.629c.66-.448,0-1.508-.636-1.084A44.354,44.354,0,0,1,16.7,49.4C16.039,49.655,16.3,50.715,17.006,50.48Z" transform="translate(51.463 124.364)" fill="#000000"/>
      <path id="Path_997" data-name="Path 997" d="M16.993,61.88c-1.7,0-13.15-1.579-11.1-4.289.4-.566-.495-1.225-.966-.731-4.383,4.713,9.568,6.528,12.066,6.481a.731.731,0,1,0,0-1.461Z" transform="translate(5.538 158.791)" fill="#000000"/>
      <path id="Path_998" data-name="Path 998" d="M31.12,58.415c-5.043,1.178-10.157,2.71-15.389,1.767-.778-.141-1.131,1.037-.33,1.2,5.467,1.2,10.817-.189,16.1-1.6a.709.709,0,0,0-.377-1.367Z" transform="translate(49.558 161.101)" fill="#000000"/>
      <path id="Path_999" data-name="Path 999" d="M31.951,58.76H29.759a.566.566,0,0,0,0,1.108h2.192a.566.566,0,0,0,0-1.108Z" transform="translate(90.823 161.605)" fill="#000000"/>
      <path id="Path_1000" data-name="Path 1000" d="M64.2,58.619c-1.838,3.229-8.342,2.616-11.453,2.616A70.463,70.463,0,0,1,40.779,60.15a.575.575,0,0,0-.306,1.108A46.8,46.8,0,0,0,55.932,62.79c2.922,0,8.437-.189,9.639-3.582C65.853,58.383,64.628,57.912,64.2,58.619Z" transform="translate(147.804 160.945)" fill="#000000"/>
      <path id="Path_1001" data-name="Path 1001" d="M54.4,33.519A22.505,22.505,0,0,0,49.1,38c-.542.636.354,1.555.919.919a25.192,25.192,0,0,1,5.067-4.124C55.789,34.2,55.153,33.071,54.4,33.519Z" transform="translate(159.848 91.307)" fill="#000000"/>
      <path id="Path_1002" data-name="Path 1002" d="M2.914,35.092c4.383,2,7.73,5.4,11.783,7.871.848.542,1.579-.754.778-1.32C11.61,38.862,8,35.492,3.527,34.031,2.725,33.725,2.278,34.809,2.914,35.092Z" transform="translate(3.545 93.996)" fill="#000000"/>
      <path id="Path_1003" data-name="Path 1003" d="M17.731,44.833a.707.707,0,0,0,.707-1.2c-1.909-1.249-3.959-2.357-5.844-3.606-.683-.471-1.3.636-.66,1.131a57.219,57.219,0,0,0,5.8,3.676Z" transform="translate(36.807 108.746)" fill="#000000"/>
      <path id="Path_1004" data-name="Path 1004" d="M33.735,44.731A17.085,17.085,0,0,0,25.7,48.808a.542.542,0,0,0,.542.919A24.98,24.98,0,0,1,33.9,46.05C34.63,45.933,34.442,44.684,33.735,44.731Z" transform="translate(81.173 121.89)" fill="#000000"/>
      <path id="Path_1005" data-name="Path 1005" d="M31.639,45.207c-.636-.283-1.06.8-.448,1.108A159.828,159.828,0,0,1,50.044,57.909c.636.448,1.155-.566.589-.99A85.522,85.522,0,0,0,31.639,45.207Z" transform="translate(104.032 126.689)" fill="#000000"/>
      <path id="Path_1006" data-name="Path 1006" d="M50.008,58.223c.683.236,1.155-.872.495-1.178a16.237,16.237,0,0,1-3.134-1.72c-.707-.518-1.367.66-.683,1.178a12.725,12.725,0,0,0,3.323,1.72Z" transform="translate(156.415 156.769)" fill="#000000"/>
      <path id="Path_1007" data-name="Path 1007" d="M35.889,28.087c-6.834.754-10.982,6.811-14.564,12.207-.236-5.986,5.467-11.783,9.426-15.342.636-.589-.189-1.461-.872-1.131a14.14,14.14,0,0,1-8.908.448c-.848-.165-1.225,1.108-.353,1.32a17.251,17.251,0,0,0,6.834.4c-4.383,4.36-7.942,10.133-7.423,16.5a.778.778,0,0,0,1.414.4C25.638,37.4,28.8,31.363,36.007,29.619,36.832,29.313,36.69,28.016,35.889,28.087Z" transform="translate(66.069 68.463)" fill="#000000"/>
      <path id="Path_1008" data-name="Path 1008" d="M21.538,26.792c3.087,1.037,6.269,1.7,9.426,2.639a.778.778,0,0,0,.99-.731c0-3.629-.9-7.47,1.084-10.77a.754.754,0,0,0-1.3-.754c-2.05,3.181-1.555,7.07-1.39,10.581-2.851-.518-5.679-1.273-8.484-2a.544.544,0,1,0-.33,1.037Z" transform="translate(68.344 47.335)" fill="#000000"/>
      <path id="Path_1009" data-name="Path 1009" d="M33.014,17.039c.518-.707-.66-1.367-1.178-.683a18.429,18.429,0,0,0-3.676,14.587.731.731,0,0,0,1.438-.189,20.715,20.715,0,0,1,3.417-13.715Z" transform="translate(87.251 45.593)" fill="#000000"/>
      <path id="Path_1010" data-name="Path 1010" d="M29.824,25.986a32.781,32.781,0,0,1,11.335-4.43c-2.9,3.252-6.858,5.609-9.968,8.7a.848.848,0,0,0,0,1.178,15.954,15.954,0,0,0,6.221,3.959c.731.189,1.273-.943.542-1.273a22.788,22.788,0,0,1-4.925-3.3c3.535-3.276,7.635-5.844,10.534-9.78a.754.754,0,0,0-.636-1.108,33.134,33.134,0,0,0-13.621,5.09.566.566,0,0,0,.518.966Z" transform="translate(95.29 56.542)" fill="#000000"/>
      <path id="Path_1011" data-name="Path 1011" d="M26.575,17.852c.518,3.488-.542,7.329.966,10.6.353.778,1.414.189,1.273-.518-.589-3.464-.353-7.07-1.013-10.416A.639.639,0,0,0,26.575,17.852Z" transform="translate(82.022 47.87)" fill="#000000"/>
      <path id="Path_1012" data-name="Path 1012" d="M29.729,26.941a36.528,36.528,0,0,0-5.491,2.569.9.9,0,0,0,.448,1.65,19.206,19.206,0,0,0,5.043-.613.8.8,0,0,0-.212-1.555h-.778c.495-.236.966-.471,1.485-.66C31.072,28.1,30.7,26.587,29.729,26.941Z" transform="translate(75.107 73.11)" fill="#000000"/>
      <path id="Path_1013" data-name="Path 1013" d="M219.7,215.183a1.348,1.348,0,0,0,0-1.323c-5.923-16.431-3-33.708-1.663-50.581.69-8.749,1.623-17.461,2.394-26.173.893-9.852,3.611-19.887,2.15-29.775v-.294a1.01,1.01,0,0,0,.088-.854,1.141,1.141,0,0,0-.615-.653,34.974,34.974,0,0,1-6.856-4.889,54.433,54.433,0,0,0-6.329-4.705c2.191-19.96,3.773-39.994,6.694-59.808.487-3.161,3.165-13.05-1.217-15.4-7.425-4.08-17.892-.735-24.748-5.955a1.243,1.243,0,0,0-.974,0c-.406-2.132-.811-4.264-1.258-6.4C185.575.067,176.365-.3,168.819.067c-13.023,1.1-26.29,5.183-38.989,7.683-9.656,1.875-19.231,3.97-28.846,6.1a1.443,1.443,0,0,0-1.258-1.1c-7.343-.845-14.2-3.2-21.624-3.676a180.218,180.218,0,0,0-21.827-.331,12.757,12.757,0,0,0-9.007,3.676c-3.083,4.08-1.582,8.271-3.53,12.461v.184c-6.41,1.066-13.875,2.536-18.3,6.4-6.654,5.808-.365,14.7-.365,22.056A80,80,0,0,0,14.2,57.669C5.845,61.639,4.06,66.528,5.4,74.652A98.909,98.909,0,0,0,13.513,98.4a39.425,39.425,0,0,0-4.869,3.86,24.138,24.138,0,0,1-7.668,4.411,1.016,1.016,0,0,0-.677.589.879.879,0,0,0,.109.845A1.22,1.22,0,0,0,0,109.1c1.947,35.473,2.191,71.019,3,106.6a1.409,1.409,0,0,0,.7,1.125,1.723,1.723,0,0,0,1.413.162c5.031,3.161,11.36,3.455,17,5.734a62.729,62.729,0,0,0,22.517,5.257A300.23,300.23,0,0,0,75.019,226.1c11.806-.735,23.856-.257,35.662-.221,22.071,0,44.141.184,66.212-.735,11.279-.441,22.882-.4,34.08-1.838,4.787-.625,12.171-1.617,9.169-7.352Zm-1.136-90.391c-.649,4.08-1.055,8.161-1.379,12.314-.852,9.521-1.866,19.078-2.678,28.636-1.3,14.7-3.408,29.7.406,44.111a126.689,126.689,0,0,0-18.7-11.028c-16.8-9.263-31.686-21.468-47.671-31.981,11.319-8.087,24.343-13.932,35.419-22.423,1.014-.845-.365-2.5-1.5-1.764-11.684,7.719-25.316,13.638-35.54,22.975h0c-2.8-1.8-5.6-3.676-8.479-5.22,12.171-2.353,22.314-11.837,32.254-18.159,15.376-9.778,29.292-21.431,44.628-31.135,7.141-4.448,3.53,11.91,3.246,13.675ZM115.022,140.157h0a48.45,48.45,0,0,0,.2,5.44,1.345,1.345,0,0,0,2.678,0c.852-16.689.649-31.76-5.842-47.456-.284-.7-1.663-.919-1.826,0-.771,5.073,2.84,10.4,4.057,15.292a91.985,91.985,0,0,1,.69,24.776,1.25,1.25,0,0,0-.527,0h-3l1.258-.478c1.826-.772.243-3.2-1.542-2.426-6.857,2.867-11.2.662-18.014.588-5.193,0-9.007,4.044-14.524,3.014-3.286-.588-6.451-2.169-9.737-2.978-4.057-.992-8.4,3.014-12.983,1.911h0q-2.434-1.544-4.99-2.978l-4.99-2.941c-3.57-10.587-8.439-20.732-12.618-31.135-1.907-4.815-3.408-9.741-5.071-14.7-3.083-9.116,2.637-12.388,10.792-14.7,23.166-6.8,44.628-16.431,67.186-24.923a208.6,208.6,0,0,1,34-10.219c14.565-2.794,16.878,12.756,19.88,22.46,7.343,23.71,13.348,47.787,22.842,71.056v.184c-.852.625-1.785,1.25-2.637,1.911-2.8,1.985-5.6,3.9-8.439,5.808a1.01,1.01,0,0,0-.771-.7c-7.1-1.617-14.606-1.985-21.787-3.125h0a50.316,50.316,0,0,1,2.637-17.865c.406-1.14-1.5-1.544-1.947-.478-5.071,11.984-4.422,25.989-2.84,38.561a47.729,47.729,0,0,1-12.171,4.742,129.286,129.286,0,0,0-17.932-8.234,1.438,1.438,0,0,0-1.988,1.47c-3.773.368-12.171,4.411-20.935,9.227a98.164,98.164,0,0,1-16.512-8.712C90.517,148.685,101.431,142.326,115.022,140.157ZM75.587,150.964c-5.193-3.455-10.183-7.095-15.336-10.55,2.191-.221,4.382-1.14,7.059-1.691,4.422-.882,8.885,3.161,13.348,3.2,6.207,0,10.833-3.2,17.405-2.463a36.771,36.771,0,0,0,5.234.257c-9.575,2.757-18.582,8.014-27.71,11.248ZM170,138.981c-4.057,2.573-7.83,5.146-11.684,7.83-2.759,1.911-5.558,3.676-8.52,5.624,0-5.7-.365-11.359-.487-16.983A86.406,86.406,0,0,0,170,138.981Zm36.879-25.732c.406-3.051.811-6.1,1.136-9.153a58.152,58.152,0,0,0,5.68,4.521,67.685,67.685,0,0,0-6.775,4.632Zm11.644-6.8c-.73.257-1.42.515-2.069.809-2.556-2.059-5.437-3.86-8.114-5.734a31.4,31.4,0,0,1,.406-3.676,97.666,97.666,0,0,0,9.778,8.6ZM202.29,20.8c3.692.4,10.711.515,10.792,5.036a101.769,101.769,0,0,1-1.5,15.255c-3.246,24.923-5.031,49.993-8.561,74.952l-1.3.919-1.826,1.287c-2.637-9.337-4.666-18.784-6.938-28.158A416.809,416.809,0,0,0,188.9,17.233c3.124,3.051,9.372,3.125,13.47,3.566Zm-154.82.662c.446-8.638,6.613-10.109,14.89-10,6.126,0,12.171.294,18.46.625,5.234.294,10.062,2.132,15.133,2.867-15.944,3.492-31.93,7.168-48.077,9.668H46.862A7.111,7.111,0,0,0,47.471,21.461ZM30.877,31.79A87.1,87.1,0,0,1,54.327,26.5c22.517-3.382,44.628-9.19,66.861-13.785,11.076-2.279,22.233-4.264,33.228-6.764a108.112,108.112,0,0,1,16.756-2.757A14.064,14.064,0,0,1,182.9,6.353a20.188,20.188,0,0,1,2.272,8.418,314.827,314.827,0,0,1,4.585,62.491c-.811-2.83-1.663-5.7-2.6-8.528-4.463-13.6-9.737-29.077-18.663-40.95-6.775-8.969-19.6-8.05-30.1-6.727A239.507,239.507,0,0,0,87.474,34.731a399.345,399.345,0,0,1-43.29,13.858l-2.881.7C39.965,42.3,54.977,40.281,60.413,38.958c1.663-.4.933-2.573-.73-2.279-5.153.882-25.682,5.293-20.854,13.2-3.773.882-7.546,1.8-11.238,2.867C27.307,45.1,21.343,36.2,30.877,31.79ZM11.4,83.841c-1.907-5-5.4-13.123-2.678-18.159,2.231-4.154,8.926-6.47,13.307-8.087a234.5,234.5,0,0,1,25.722-6.8A364.913,364.913,0,0,0,85.608,38.664,325.247,325.247,0,0,1,127.924,25.8a115.944,115.944,0,0,1,22.192-2.353c9.453,0,14.443,3.676,18.663,11.028,15.7,26.651,19.8,56.646,27.994,85.466a1.034,1.034,0,0,0,0,.368c-3.692,2.536-7.384,5.073-11.035,7.646-5.477-13.638-9.615-27.717-14.443-41.538s-7.3-28.709-13.064-42.567C155.836,38,152.794,33.26,145.491,32.819a56.11,56.11,0,0,0-17.243,3.161,236.319,236.319,0,0,0-22.923,7.352c-13.348,4.889-26.371,10.587-39.6,15.77-11.482,4.521-24.343,7.131-35.5,12.5-8.317,4.08-5.8,12.425-3.367,19,4.787,13.086,10.711,25.732,15.417,38.965-5.234-3.235-10.386-6.543-15.7-9.778-.893-.515-1.785-1.029-2.718-1.507C22.073,106.3,15.825,95.274,11.4,83.841Zm9.778,33.083c-4.341-1.764-9.007-3.272-13.064-5.4q4.466-2.637,9.21-4.852a102.392,102.392,0,0,1,3.854,10.4ZM9.253,105.272c1.339-.882,2.637-1.838,4.057-2.757.568-.441,1.217-.845,1.826-1.287.446.956.852,1.912,1.258,2.867-3.733,1.4-6.573,4.08-10.265,5.551a.93.93,0,0,0-.487.331c-.811-.515-1.623-1.029-2.394-1.617a19.833,19.833,0,0,0,6-3.088Zm-5.8,7.131a110.551,110.551,0,0,0,16.837,7.683c9.575,4.154,17.648,11.248,26.777,16.174,15.3,8.234,27.954,20.254,44.628,26.357-12.171,6.69-24.1,14.226-25.722,15.292a196.1,196.1,0,0,1-37.082,20.438c-7.587,2.941-17.2,6.176-22.8,12.2C5.277,177.835,4.587,145.119,3.451,112.4ZM213.042,220.072a149.663,149.663,0,0,1-21.868,1.581c-21.381.735-42.681,1.47-64.062,1.434h-39.6c-12.374,0-24.546,1.47-36.879,2.1a72.451,72.451,0,0,1-20.286-1.838c-4.666-1.066-8.8-3.676-13.551-5.036-2.15-.551-4.3-.993-6.451-1.581C4.3,215.036,6.94,213.6,9.537,211.25a42.167,42.167,0,0,1,11.4-6.617c6.938-3.161,14.24-5.661,21.219-8.786a203.986,203.986,0,0,0,27.832-17.02c2.313-1.544,44.831-25,44.628-25.07a1.544,1.544,0,0,0,2.475,0c21.178,7.867,37.772,22.056,55.7,34.554,11.117,7.683,23.369,13.454,34.729,20.769C211.338,211.433,222.495,218.307,213.042,220.072Z" transform="translate(0.001 0.025)" fill="#000000"/>
      <path id="Path_1014" data-name="Path 1014" d="M35.115,55.862c-.141-1.2-.33-2.357-.518-3.558a2.5,2.5,0,0,0,1.72-.448c.613-.424.259-1.508-.542-1.273a2.357,2.357,0,0,1-1.32.212h0a227.555,227.555,0,0,1-3.841-23.778.707.707,0,1,0-1.414,0,110.359,110.359,0,0,0,4.242,29.057C33.678,56.993,35.233,56.828,35.115,55.862Z" transform="translate(92.292 79.609)" fill="#000000"/>
      <path id="Path_1015" data-name="Path 1015" d="M41.347,29.56c-3.417.683-6.033,3.04-9.12,4.548-.778.377-.236,1.65.589,1.39,2.663-.872,4.713-2.757,7.376-3.771-2.357,7.423-2.192,15.7-1.956,23.378a.683.683,0,0,0,1.343,0c.236-8.2-.236-16.708,2.828-24.485C42.666,29.96,41.912,29.442,41.347,29.56Z" transform="translate(102.206 87.634)" fill="#000000"/>
      <path id="Path_1016" data-name="Path 1016" d="M41.444,28.9c.707-.589-.236-1.791-.966-1.273-3.2,2.357-5.255,6.056-8.884,7.683-.636.283-.165,1.3.495,1.131C36,35.4,38.451,31.346,41.444,28.9Z" transform="translate(100.314 76.041)" fill="#000000"/>
      <path id="Path_1017" data-name="Path 1017" d="M34.165,25.008c-.33-.613-1.225,0-.919.518a10.251,10.251,0,0,0,4.242,4.713.683.683,0,0,0,.683-1.178A11.123,11.123,0,0,1,34.165,25.008Z" transform="translate(103.847 67.616)" fill="#000000"/>
      <path id="Path_1018" data-name="Path 1018" d="M40.212,36.892a24.179,24.179,0,0,1,3.511-4.313c-1.06,2.027-2.05,4.242-1.367,5.4s2.663,1.744,3.276,2.357a44.776,44.776,0,0,1,4.6,4.006c-3.064.306-6.457-1.673-9.167-2.663-.848-.306-1.249,1.108-.377,1.39,3.723,1.155,6.9,2.687,10.864,2.357a.707.707,0,0,0,.589-1.06,18.853,18.853,0,0,0-6.481-6.151c-2.1-1.39-1.815-1.65-.471-4.265a19.749,19.749,0,0,0,2.1-4.713.872.872,0,0,0-1.438-.848,37.328,37.328,0,0,0-5.821,5.75c-.683-3.959-2.357-7.683-3.37-11.618-.189-.825-1.367-.448-1.249.353.731,4.713,2.851,8.908,3.134,13.645a.9.9,0,0,0,1.673.377Z" transform="translate(117.207 64.662)" fill="#000000"/>
      <path id="Path_1019" data-name="Path 1019" d="M34.725,18.717c-2.168,3.511-3.441,7.447-5.491,11.029-4.1,7.07-12.8,6.316-19.254,3.158-.636-.306-1.178.613-.566.966,5.7,3.158,12.4,4.525,18.075.566,4.713-3.252,6.127-10.157,8.531-14.964a.754.754,0,0,0-1.3-.754Z" transform="translate(32.049 52.87)" fill="#000000"/>
      <path id="Path_1020" data-name="Path 1020" d="M11.8,27.84a38.366,38.366,0,0,0,0,4.36.707.707,0,0,0,1.39,0,38.365,38.365,0,0,0,0-4.36.7.7,0,0,0-1.39,0Z" transform="translate(36.111 74.167)" fill="#000000"/>
      <path id="Path_1021" data-name="Path 1021" d="M19.051,26.281a.707.707,0,0,0-.99.99A11.1,11.1,0,0,0,21.6,29.816c.683.306,1.579-.566.872-1.131C21.384,27.813,20.088,27.224,19.051,26.281Z" transform="translate(55.961 70.947)" fill="#000000"/>
      <path id="Path_1022" data-name="Path 1022" d="M25.505,20.211a.8.8,0,0,0,0-1.6,6.174,6.174,0,0,1-3.229-.825c-.848-.589-1.579.754-.778,1.343A6.292,6.292,0,0,0,25.505,20.211Z" transform="translate(66.162 47.71)" fill="#000000"/>
      <path id="Path_1023" data-name="Path 1023" d="M23.989,24.331a.8.8,0,0,0,.424-1.532,6.316,6.316,0,0,0-4.218,0,.707.707,0,0,0,.377,1.32,11.924,11.924,0,0,1,3.417.212Z" transform="translate(62.027 60.52)" fill="#000000"/>
      <path id="Path_1024" data-name="Path 1024" d="M16.259,28.082c-.141-.848-1.485-.636-1.438.189a13.9,13.9,0,0,0,1.06,6.434.754.754,0,0,0,1.367-.589,35.019,35.019,0,0,1-.99-6.033Z" transform="translate(45.693 75.757)" fill="#000000"/>
    </g>
  </g>
</svg>
