<svg xmlns="http://www.w3.org/2000/svg" width="223" height="228" viewBox="0 0 223 228">
  <g id="Layer_2" data-name="Layer 2" transform="translate(0.001)">
    <g id="Deck_Chair" data-name="Deck Chair" transform="translate(0)">
      <path id="Path_807" data-name="Path 807" d="M21.547,18.733c.527-3.073,1.024-6.116,1.522-9.189a.82.82,0,1,0-1.58-.439,35.291,35.291,0,0,0-1.346,9.452C20.055,19.318,21.43,19.494,21.547,18.733Z" transform="translate(33.531 16.383)" fill="#000000"/>
      <path id="Path_808" data-name="Path 808" d="M43.844,7.577c.878.38,1.931-.673,1.112-1.434A26.6,26.6,0,0,0,40.742,3.51a.79.79,0,0,0-.936,1.229,15.334,15.334,0,0,0,4.038,2.839Z" transform="translate(65.841 6.615)" fill="#000000"/>
      <path id="Path_809" data-name="Path 809" d="M145.725,181.67a51.839,51.839,0,0,0,.819-7.9,107.258,107.258,0,0,1,4.243-24.922c3.57-2.515-2.283-6.533-6.233-5.553a158.025,158.025,0,0,1-19.87,4.7l-2.136.327v-.327l-.263-.457a1.4,1.4,0,0,0,.146-1.339c-7.725-19.5-16.621-38.411-23.879-58.009-2.487-6.827-5.238-13.522-7.989-20.218a28.354,28.354,0,0,0,8.311-2.058c3.365-1.045,6.7-2.221,10.008-3.266h0a.9.9,0,0,0,.556.2h.234a.976.976,0,0,0,.849-.523,47.549,47.549,0,0,1,18.933-20.871A69.559,69.559,0,0,1,140.926,35.5c3.8-1.6,7.93-1.6,11.705-2.907a1.152,1.152,0,0,0,.727-.806,1.319,1.319,0,0,0-.2-1.121,1.726,1.726,0,0,0,.176-.555c.615-6.369,1.609-11.759,6.584-15.743a.932.932,0,0,0,.351-.621,1.226,1.226,0,0,0,.518-.891,1.3,1.3,0,0,0-.313-1A43.036,43.036,0,0,0,132.644.653C125.358,0,117.925,0,110.639,0S97.47,3.266,90.769,4.279a.84.84,0,0,0-.263,0A25.38,25.38,0,0,0,78.8,6.206a76.082,76.082,0,0,0-9.949,5.553c-.79-2.384-1.99-6.924-4.975-5.945s-1.814,6.141-.263,8.754a21.644,21.644,0,0,0-9.042,5.879.824.824,0,0,0-.819,0A130.04,130.04,0,0,0,32.038,37.758,142.562,142.562,0,0,0,14.48,60.622C9.242,68.167,4.443,79.37,4.531,88.81a1.178,1.178,0,0,0,.647,1.027.97.97,0,0,0,1.109-.21l.615-.621h0c3.336.751,3.775,6.3,4.682,9.309.322,1.013,1.814,1.209,2.019,0v-.261a.736.736,0,0,0,.351,0,31.9,31.9,0,0,1,9.51-4.181.65.65,0,0,0,.351-.2,35.283,35.283,0,0,0,2.37,2.809,96.6,96.6,0,0,1,10.476,14.927,1.176,1.176,0,0,0-.439.849c-1.171,12.085-1.112,24.5-1.4,36.615q-.263,9.8-.322,19.6a105.662,105.662,0,0,1-.351,18.781.916.916,0,0,0,.2.784c-4.858,2.188-9.979,3.822-14.632,6.337-2.575,1.4-4.828,3.038-4.038,6.533,1.492,6.859,20.484-5.128,22.65-6.533,6.584-3.724,12.993-8,19.343-12.249s12.934-5.814,19.021-9.6l.527.784,4.155,6.533c-2.165,1.535-4.682,2.613-6.906,3.952s-5.355,3-5.5,5.814,4.038,2.548,5.531,1.829c3.57-1.7,6.584-4.834,10.125-6.533a212.935,212.935,0,0,0,18.114,24.954,1.037,1.037,0,0,0,.7.359.926.926,0,0,0,1.053.294c3.892-1.176,2.721-6.075-.5-11.987a90.737,90.737,0,0,1,23.879-7.578,34.448,34.448,0,0,0,11.413-3.266c2.253,3.691,6.409,10.093,10.71,7.218s-2.312-9.8-3.775-12.771a1.3,1.3,0,0,0-.5-.457Zm2.37-31.683c-.556,2.188-1.112,4.377-1.609,6.533a43.7,43.7,0,0,0,.293-6.206Zm-16.3,0a62.744,62.744,0,0,0,11.647-3.626c6.555-2.254,1.873,1.568-.351,1.764a55.484,55.484,0,0,0-7.257,1.568c-6.935,1.568-13.958,2.384-20.894,4.018a79.327,79.327,0,0,1-14.222,3.56,3.353,3.353,0,0,0,.146-2.646c10.388-1.111,20.572-3.364,30.873-4.736ZM96.68,187.647c-.644-.915-1.317-1.8-1.961-2.646a1.249,1.249,0,0,0,.439-.882c0-1.437.176-2.907.2-4.377a1.042,1.042,0,0,0,0-.98,81.114,81.114,0,0,0-1.492-15.123,41.65,41.65,0,0,0,4.243-3.266,85.431,85.431,0,0,1-1.492,14.078,75.393,75.393,0,0,0,.146,13.1Zm.936-30.115a21,21,0,0,1-3.453,3.038c-3.57,2.613-7.725,4.638-11.5,6.924a1.052,1.052,0,0,0-.819.719l-1.7-2.45a1.108,1.108,0,0,0,.176-.327s.234,0,.615-.457a14.809,14.809,0,0,1,1.99-1.045,26.709,26.709,0,0,0,2.926-1.633,44.825,44.825,0,0,1,9.393-6.533c1.9-.686,4.3-.49,2.458,1.666ZM92.7,169.846l.176,2.123a17.669,17.669,0,0,1-8.281-2.874l2.019-1.176a.746.746,0,0,0,.468.392A18.3,18.3,0,0,0,92.7,169.846Zm-3.98-3.266c1.171-.653,2.37-1.339,3.541-2.09,0,.98.146,1.96.234,2.94A10.089,10.089,0,0,1,90.154,167Zm4.3,7.676v3.626a15.3,15.3,0,0,0-3.16.719c-2.546-3.266-4.477-5.487-5-6.206l-1.288-1.862a16.614,16.614,0,0,0,9.452,3.854Zm0,5.912v2.417l-1.7-2.123Zm5.063-27.894a1.146,1.146,0,0,0-.79.49,8.761,8.761,0,0,0-5.15,1.4A85.326,85.326,0,0,1,75.7,130.651c-.38-.849-1.756-.229-1.4.686A77.305,77.305,0,0,0,90.33,155.7c-1.727,1.274-3.336,2.776-4.8,3.919-.936.784-5.267,2.352-6.643,4.181-7.667-11.3-15.041-22.864-22.533-34.329-3.19-5.03-6.555-9.6-10.008-14.372a.968.968,0,0,0,0-.98c-2.341-4.409-3.512-9.407-5.853-13.784a70.359,70.359,0,0,1-5.589-10.485L37.6,89.4a.827.827,0,0,0,.234.588c6.672,7.349,9.979,17.017,13.4,26.522a.949.949,0,1,0,1.814-.555C50.532,106.579,46.26,95.6,39.442,89.071c1.434-.261,2.926-.523,4.3-.686L53.81,87.144a.971.971,0,0,0,.071.807.777.777,0,0,0,.632.4c1.4.2,5.267,10.06,6.116,11.922a118.488,118.488,0,0,0,5.853,12.51.937.937,0,0,0,1.7-.784,149.838,149.838,0,0,0-7.462-16.56,32.3,32.3,0,0,0-5.063-8.525l3.687-.392a.9.9,0,0,0,.527,1.013c6.233,2.221,8.779,15.351,10.857,21.329,3.482,9.8,6.057,19.859,12.5,27.7.79.915,2.312-.359,1.609-1.4-6.877-10.027-10.447-21.884-14.632-33.545-1.639-4.638-3.98-13.065-8.779-15.286,2.926-.294,5.706-.457,8.574-.588a1.088,1.088,0,0,0,.322.523A17.922,17.922,0,0,1,75.2,96.42c.263,1.176,1.7.653,1.551-.49a17.429,17.429,0,0,0-4.243-10.321h.7a.989.989,0,0,0,.907-.621c3.365,3.789,4.653,8.852,6.965,13.392,3.307,6.533,6.789,12.738,9.657,19.6,4.887,11.661,9.92,23.452,17.909,32.859-.732.163-1.492.261-2.224.392a1.31,1.31,0,0,0,0-.294,8.788,8.788,0,0,0-1.288-1.339,9.918,9.918,0,0,1-1.375-1.8.735.735,0,0,0-1.011-.2.934.934,0,0,0-.336,1.083,10.991,10.991,0,0,0,2.019,2.94c-2.195.229-4.214.555-6.233.784ZM41.022,106.611A161.074,161.074,0,0,0,30.575,90.28h0l2.517-.229a36.619,36.619,0,0,0,5,10.387,40.936,40.936,0,0,1,2.926,6.173ZM70.051,83.192c-3.453.261-6.877.686-10.33,1.143a72.235,72.235,0,0,1,11.032-7.97c4.3-2.45,9.1-3.528,13.549-5.683,1.229,3.528,2.517,7.022,3.921,10.452,5.5,13.065,11.12,26.326,16.709,39.489A287.3,287.3,0,0,1,85.824,92.142c-2.341-4.181-8.077-15.025-13.2-15.025-3.395,0-3.98,3.593-2.692,6.075Zm22.62,33.643c1.492,1.535,2.926,2.94,3.775,4.018,6.965,9.146,13.081,18.977,19.489,28.613l-4.682.784a1.1,1.1,0,0,0-.293-.686c-8.281-9.113-13.373-21.1-18.406-32.728ZM99.2,189.019c0-3.266-.234-6.533-.234-9.8h.351c9.218-1.8,18.816-1.927,27.127-6.533a59.2,59.2,0,0,1,3.395,10.779l-2.517.98c-8.574,3.266-17.558,5.128-26.161,8.46a.619.619,0,0,0-.38.294c-.673-1.045-1.375-2.058-2.107-3.266a1.193,1.193,0,0,0,.41-.915Zm29-17.442,1.756-1.241a.83.83,0,0,0,0,.653c1.024,1.731,2.107,3.266,3.219,5.1v.294q.616,2.818,1.492,5.553a19.259,19.259,0,0,0-2.926.751,58.052,58.052,0,0,0-3.658-11.105Zm-2.048-1.731c-7.9,5.389-18.377,4.867-27.273,6.533a38.518,38.518,0,0,1,.439-4.834,38.444,38.444,0,0,0,.849-12.249c5.853.2,12.612-2.678,18.143-3.985,7.4-1.7,15.275-2.286,22.8-3.822C139.96,158.937,131.24,166.58,126.148,169.846Zm-8.106-20.937v-.163c-8.106-13.522-17.207-28.907-28.649-39.2-2.517-5.226-5.648-10.093-8.018-15.384-1.727-3.822-2.926-8.819-6.613-10.844a.694.694,0,0,0-.79,0A.914.914,0,0,0,73.211,83h-.673c1.844-1.96,3.307-1.731,4.36.588a63.616,63.616,0,0,1,4.243,5.651,85.132,85.132,0,0,1,4.916,8.754,116.33,116.33,0,0,0,10.008,15.221c8.516,11.53,16.065,23.484,23.82,35.6ZM97.353,91.652c5.589,15.678,12,31.128,18.758,46.283-1.931-3.1-3.833-6.239-5.853-9.276a1.4,1.4,0,0,0,0-1.241q-10.1-23.811-20.484-47.426C83.921,66.926,81,51.281,73.738,39l-.176-.2,3.131-1.829C81.7,55.886,90.769,73.426,97.353,91.652Zm.936-28.09a59.582,59.582,0,0,0-8.428,2.744c-4.068-9.962-8.077-19.924-11.3-30.278h0l2.6-1.47c1.434-.849,2.926-1.666,4.36-2.482A61.952,61.952,0,0,1,97.236,44c3.833,5.03,8.6,10.093,10.8,16.331C104.757,61.275,101.538,62.451,98.29,63.562Zm42.227-30.474a68.811,68.811,0,0,0-10.242,5.128,58.683,58.683,0,0,0-17.968,16.756c-1.931,2.776-1.58,6.173-3.19,2.221a44.431,44.431,0,0,0-6.5-9.8C97.88,41.449,93.7,35.047,87.257,31.03l1.99-1.078c3.073,4.018,7.667,6.075,10.8,10.093.644.849,1.961-.294,1.375-1.209-2.721-4.213-7.228-6.141-10.476-9.8a93.354,93.354,0,0,1,9.276-4.181,162.73,162.73,0,0,1,17.382-4.54c.176.327.322.686.468,1.013a1.022,1.022,0,0,0,1.463.425,37.834,37.834,0,0,1,7.491-4.246,21.954,21.954,0,0,0,9.335,3.854c5.618,1.5,10.242,5.585,15.012,9.048C147.773,31.52,144.028,31.716,140.516,33.087ZM154.153,18.52c-.79,1.5-2.546,9.374-2.926,9.113a42.333,42.333,0,0,0-11.12-7.382,92.507,92.507,0,0,1-10.974-3.56,72.706,72.706,0,0,1,28.678-3,19.372,19.372,0,0,0-3.716,4.834ZM64.432,8.133c.966-.327,2.078,3.789,2.341,4.475a1.171,1.171,0,0,0,.146.261l-1.609.849C64.432,12.249,62.881,8.656,64.432,8.133ZM12.7,93.938c-.761-2.874-1.844-5.781-4.155-6.7a120.277,120.277,0,0,1,9.54-8.852C16.324,83.519,14.275,88.614,12.7,93.938Zm9.745-2.482a9.371,9.371,0,0,0-4.624,1.7c-1.083.588-2.341,1.045-3.424,1.731,1.551-6.206,4.068-12.02,5.853-18.1a1.053,1.053,0,0,0,0-.523,114.462,114.462,0,0,1,27.1-16c1.229-.555.7-2.776-.556-2.254A119.277,119.277,0,0,0,6.784,86a60.078,60.078,0,0,1,9.189-24.138A132.452,132.452,0,0,1,33.209,39.489,130.785,130.785,0,0,1,54.483,22.472h.176a.486.486,0,0,0,.322-.2c4.916-4.8,12.056-6.533,17.85-10.093,10.359-6.141,18.436-6.99,29.263-1.6a.732.732,0,0,0,1.053-.327.919.919,0,0,0-.293-1.176,30.852,30.852,0,0,0-7.111-3.266,99.142,99.142,0,0,1,12.349-2.94A146.066,146.066,0,0,1,127,3.1,89.879,89.879,0,0,1,144.2,4.965a30.36,30.36,0,0,1,12.232,6.827c-6.262,0-12.525-.229-18.816.555-1.171,0-19.2,4.834-18.172,7.088a.655.655,0,0,0,0-.229.716.716,0,0,0-.761-.621C105.4,18.716,93.4,24.53,81.99,30.964,71.689,36.811,58.843,43.409,50.971,53.4a.718.718,0,0,0-1.258.359c-.059.653-.176,1.176-.234,1.764s.907,2.025,1.668,1.078A78.672,78.672,0,0,1,72.275,39.62a1.53,1.53,0,0,0,0,.327A199.242,199.242,0,0,1,83.453,68.592C78.391,71.139,73.006,72.479,68,75.32A59.09,59.09,0,0,0,56.3,84.629h-.936c.2-8.133,0-16.331.556-24.3,0-1.209-1.727-1.5-1.9-.294a143.049,143.049,0,0,0-.439,24.791l-4.536.359c-7.93.425-15.48,3.626-22.913-.719h-.2a1.113,1.113,0,0,0-.558-.879.906.906,0,0,0-.964.063,4.786,4.786,0,0,0-2.79,3.337A5.417,5.417,0,0,0,22.44,91.456Zm14.31,84.6c-.38-7.153,0-14.4,0-21.59.263-13.457,0-27.437,1.288-40.861l2.253,3.266a.973.973,0,0,0-.234.653,179.614,179.614,0,0,1-1.024,32.663c-.936,11.693-.38,23.55-.322,35.276L36.545,186.6l-.878.425a25.356,25.356,0,0,0,1.083-10.844Zm28.473-1.47c-5.326,2.744-10.242,6.271-15.363,9.472s-9.891,6.533-15.012,9.342c-2.926,1.6-5.853,3-8.779,4.344-1.463.653-2.926,1.241-4.419,1.8s-2.224,0-2.429-2.286c3.8-2.744,9.423-3.985,13.607-5.879a119.825,119.825,0,0,0,14.046-7.055c5.326-3.266,10.505-6.533,15.8-9.8,3.746-2.319,7.93-2.972,11.442-5.781.41.588.79,1.209,1.171,1.8-3.277,1.8-6.789,2.58-10.066,4.181ZM42.017,119.676l1.2,1.829a1.108,1.108,0,0,0-.146.784c2.692,17.7,14.31,34.525,26.863,45.369a86.648,86.648,0,0,1-13.285,2.025A138.2,138.2,0,0,1,40.758,172c0-7.186,0-14.339.38-21.492a193.931,193.931,0,0,0,.878-30.834Zm3.746,5.749c1.756,2.711,3.512,5.422,5.18,8.2C57.936,145.121,65.574,156,72.977,167.1l-.293.163a1.191,1.191,0,0,0-.41-.686,89.893,89.893,0,0,1-26.512-41.155Zm19.284,45.728A72.589,72.589,0,0,0,57,175.138c-5.355,3.266-10.681,6.533-16.153,9.538V173.668A42.932,42.932,0,0,0,55.478,172.3a83.95,83.95,0,0,1,9.569-1.111Zm12.729,15.482a25.231,25.231,0,0,1-4.565,2.809c-.761.294-2.692.686-1.668-.588,2.926-3.528,7.872-4.181,10.974-7.284l.849,1.307a63.49,63.49,0,0,0-5.589,3.789ZM104.113,208c-6.087-7.806-11.939-15.907-17.558-24.17.439-.849,0-2.188-1.171-1.8h0l-7.257-10.681a1.434,1.434,0,0,0-.358-1.152,1.12,1.12,0,0,0-1.047-.35c-5.706-8.623-11.325-17.311-16.856-25.934-6.76-10.583-13.051-21.427-20.133-31.748-2.926-4.442-5.443-9.8-8.779-13.882-1.785-2.188-9.628-8.329-6.175-11.922a1.435,1.435,0,0,0,.2.229c1.112.849,1.99,2.09,3.073,2.907a.4.4,0,0,0,0,.261C42.69,111.739,55.975,135,71.368,156.422,79.005,167.07,86,178.208,94.1,188.366c1.58,1.927,13.871,17.9,9.862,19.663Zm34.823-22.6c-4.624,3.266-11.3,3.266-16.5,4.311a90.14,90.14,0,0,0-19.518,6.794l-1.112-1.862c7.169-2.254,14.4-4.344,21.625-6.533,2.107-.588,4.155-1.6,6.2-2.384l1.375-.457a1.119,1.119,0,0,0,.819-.294l1.375-.457c-.907.392,8.779-1.307,5.589.915Zm.79-3.266a1.194,1.194,0,0,0-.234-.751,63.4,63.4,0,0,1-4.828-6.99,20.924,20.924,0,0,0-3.716-4.54h-.263l2.165-1.862a65.028,65.028,0,0,1,7.4,10.746.947.947,0,0,0,.351.425,14.729,14.729,0,0,0,.234,3.593,8.722,8.722,0,0,0-1.258-.653Zm-4.536-14.437a14.99,14.99,0,0,0,4.975,0,1.138,1.138,0,0,0,0-2.188c-1.58-.163-3.131,0-4.653-.2,3.833-3.985,7.491-9.08,7.725-14.078l1.9-.425a205.9,205.9,0,0,1-3.629,22.864,8.349,8.349,0,0,1-.293,1.437,44.227,44.227,0,0,0-6.175-7.447Zm9.657,0c-.234,3.887.468,10.975-1.522,14.862-1.4-4.344.38-10.191,1.375-14.829Zm4.448,24.628c-1.492,3.593-6.409-3.593-8.018-5.945l.819-.621a1.091,1.091,0,0,0,.8.5,1.045,1.045,0,0,0,.867-.341,6.12,6.12,0,0,0,1.2-1.7c.673,1.143,1.463,2.188,2.224,3.266S149.734,190.848,149.3,192.318Z" transform="translate(8.727)" fill="#000000"/>
      <path id="Path_810" data-name="Path 810" d="M36.88,48.03a1.112,1.112,0,0,0-1.112.293,1.171,1.171,0,0,0-.293,2.107,1.463,1.463,0,0,0,2.224-.936A1.2,1.2,0,0,0,36.88,48.03Z" transform="translate(58.172 107.563)" fill="#000000"/>
      <path id="Path_811" data-name="Path 811" d="M30.861,51.1a.293.293,0,0,0-.146,0,1.112,1.112,0,1,0,0,1.931.293.293,0,0,0,.146,0,.966.966,0,0,0,0-1.931Z" transform="translate(48.376 114.175)" fill="#000000"/>
      <path id="Path_812" data-name="Path 812" d="M51.733,82.472C43.247,76.62,40.321,67.4,36.575,58.36c-4.1-9.92-10.622-18.67-15.451-28.239-.468-.878-1.7,0-1.317.79,5.121,11.852,12.378,22.445,17.177,34.5,2.926,7.082,6.35,15.509,13.637,18.992a1.114,1.114,0,0,0,1.112-1.931Z" transform="translate(32.139 69.932)" fill="#000000"/>
      <path id="Path_813" data-name="Path 813" d="M34.147,52.508c.644.849,2.048-.263,1.463-1.112-5.267-7.521-7.7-16.651-13.988-23.41-.673-.7-1.639.322-1.053,1.024C26.422,36.062,28.558,45.28,34.147,52.508Z" transform="translate(33.658 63.286)" fill="#000000"/>
      <path id="Path_814" data-name="Path 814" d="M25.9,38.454c2.136,5.853,6.262,10.359,8.779,15.978a54.576,54.576,0,0,0,9.54,14.807c.878.966,2.253-.468,1.434-1.463a72.631,72.631,0,0,1-9.276-14.368c-2.634-5.384-6.292-10.154-8.954-15.539C26.9,37.107,25.581,37.663,25.9,38.454Z" transform="translate(42.53 86.071)" fill="#000000"/>
      <path id="Path_815" data-name="Path 815" d="M38.992,48.759a43.427,43.427,0,0,1-4.945-5.414c-.732-.936-2.312,0-1.639.966a27.536,27.536,0,0,0,4.185,5,33.273,33.273,0,0,0,5.384,4.77c.732.468,1.844-.5,1.258-1.258a32.862,32.862,0,0,0-4.243-4.068Z" transform="translate(53.39 96.891)" fill="#000000"/>
      <path id="Path_816" data-name="Path 816" d="M27.137,26.916c-.585-.7-1.756.2-1.258.966a18.757,18.757,0,0,0,1.99,2.926c.644.732,1.844-.2,1.346-1.053a20.309,20.309,0,0,0-2.078-2.839Z" transform="translate(42.871 59.842)" fill="#000000"/>
      <path id="Path_817" data-name="Path 817" d="M28.714,30.241c-.468-.878-1.7,0-1.317.79,2.487,5.853,3.512,12.378,7.521,17.558.673.878,2.165-.263,1.522-1.171C32.87,41.946,31.67,35.742,28.714,30.241Z" transform="translate(45.304 67.792)" fill="#000000"/>
      <path id="Path_818" data-name="Path 818" d="M42.962,58.131a.936.936,0,0,0,1.609-.936,71.226,71.226,0,0,0-5.677-7.93c-2.37-3.424-4.068-7.345-6.262-10.886a.773.773,0,0,0-1.346.761c1.7,3.365,3.424,6.73,5.267,10.037S40.913,55.117,42.962,58.131Z" transform="translate(51.553 86.302)" fill="#000000"/>
      <path id="Path_819" data-name="Path 819" d="M30.825,31.091c-.439-.878-1.756,0-1.317.761C35.975,45.138,40.979,60,50.987,71.152c.7.79,2.136-.293,1.492-1.171C43.759,57.867,37.526,44.494,30.825,31.091Z" transform="translate(48.279 71.101)" fill="#000000"/>
      <path id="Path_820" data-name="Path 820" d="M56.182,47.754A70.233,70.233,0,0,0,45.3,55.333c-1.083.819,0,2.663,1.053,1.844,3.629-2.546,7.052-5.384,10.681-7.96a.849.849,0,0,0-.849-1.463Z" transform="translate(74.183 107.401)" fill="#000000"/>
      <path id="Path_821" data-name="Path 821" d="M46.336,48.872A21.773,21.773,0,0,0,42.152,51.8c-.819.7.263,2.107,1.112,1.463a28.414,28.414,0,0,1,4.009-2.721A.957.957,0,0,0,46.336,48.872Z" transform="translate(69.561 109.426)" fill="#000000"/>
      <path id="Path_822" data-name="Path 822" d="M21.361,20.106c-4.711,3.716-9.774,6.5-14.485,9.92-.79.556,0,1.844.761,1.317a118.487,118.487,0,0,0,15.07-9.774C23.673,20.779,22.327,19.491,21.361,20.106Z" transform="translate(12.615 44.995)" fill="#000000"/>
      <path id="Path_823" data-name="Path 823" d="M23.627,22.434c6.2-5.853,14.485-8.135,21.918-12.144.966-.5,0-1.873-.849-1.434-7.521,3.512-16.856,5.589-22.211,12.437C21.872,22.083,22.867,23.166,23.627,22.434Z" transform="translate(36.574 16.895)" fill="#000000"/>
      <path id="Path_824" data-name="Path 824" d="M46.471,7.07C50.129,6.016,53.9,5.548,57.533,4.436a.909.909,0,0,0-.468-1.756,82.171,82.171,0,0,0-11,2.926C45.155,5.929,45.476,7.362,46.471,7.07Z" transform="translate(75.302 5.104)" fill="#000000"/>
      <path id="Path_825" data-name="Path 825" d="M43.188,19.842a.973.973,0,0,0,1.375,1.375c6-4.916,15.1-12.027,23.41-9.949a.8.8,0,1,0,.41-1.551C60.16,6.527,48.4,13.9,43.188,19.842Z" transform="translate(70.244 17.234)" fill="#000000"/>
      <path id="Path_826" data-name="Path 826" d="M36.576,21.4a23.645,23.645,0,0,0,7.2-1.931.878.878,0,0,0-.673-1.609c-2.312.79-4.711,1.024-7.052,1.668C34.791,19.853,35.347,21.609,36.576,21.4Z" transform="translate(58.602 39.989)" fill="#000000"/>
      <path id="Path_827" data-name="Path 827" d="M24.06,27.583a26.336,26.336,0,0,1,5.033-3.16c1.141-.439.644-2.312-.5-1.844a22.562,22.562,0,0,0-5.5,3.365C22.128,26.647,23.006,28.285,24.06,27.583Z" transform="translate(37.655 50.538)" fill="#000000"/>
      <path id="Path_828" data-name="Path 828" d="M21.7,9.674A55.4,55.4,0,0,0,17.8,31.68a.907.907,0,1,0,1.814,0,69.529,69.529,0,0,1,3.629-21.6C23.6,9.118,22.077,8.738,21.7,9.674Z" transform="translate(29.558 17.599)" fill="#000000"/>
      <path id="Path_829" data-name="Path 829" d="M33.291,4.949c4.068-.849,7.989.878,11.852,1.814a.849.849,0,0,0,.468-1.609A25.078,25.078,0,0,0,32.881,3.427C31.886,3.661,32.325,5.154,33.291,4.949Z" transform="translate(53.411 6.23)" fill="#000000"/>
      <path id="Path_830" data-name="Path 830" d="M41.672,53.131c-13.958.585-27.039,8.4-40.851,8.4-.907,0-1.171,1.463-.234,1.609,5.853.966,12.086-1.522,17.7-2.926a231.5,231.5,0,0,1,23.645-5.18C42.93,54.711,42.666,53.072,41.672,53.131Z" transform="translate(0 119.742)" fill="#000000"/>
      <path id="Path_831" data-name="Path 831" d="M127.58,62.549a1.024,1.024,0,0,0-.936-.176,38.568,38.568,0,0,0-9.54-3.219c-6.438-1.492-12.993-2.926-19.518-4.214a196.591,196.591,0,0,0-43.4-3.8.819.819,0,0,0,0,1.609c13.432.878,26.951,1.7,40.3,3.833,6.057.995,11.969,2.692,17.968,3.951a43.047,43.047,0,0,1,16.387,5.853.907.907,0,0,0,.761,0c5.18,3.833,11.705,8.077,8.779,14.632-2.575,5.267-9.189,8.574-14.076,11.266-10.1,5.5-21.157,8.779-31.487,13.549-1.171.585,0,2.283,1.024,1.756,13.11-5.853,26.922-9.628,38.861-17.821,3.658-2.487,8.779-6.613,8.779-11.705C141.538,70.625,132.671,66.762,127.58,62.549Z" transform="translate(81.52 120.316)" fill="#000000"/>
      <path id="Path_832" data-name="Path 832" d="M100.16,66.328a48.9,48.9,0,0,1-9.715-3.716,54.838,54.838,0,0,1-7.843-6.5c-1.024-.966-2.546.527-1.58,1.522-.732,2.048-1.375,4.126-2.224,6.116-1.492,3.424-8.135,4.624-11.471,5.589A24.23,24.23,0,0,0,57.7,74.4a1.141,1.141,0,0,0,0,1.58c3.307,2.575,8.106,1.463,11.91.7s6.965-.819,5.56,4.009A71.107,71.107,0,0,0,73,87.954a1.112,1.112,0,0,0,1.053,1.375,7.55,7.55,0,0,0,5.18-1.609c1.609-1.346,3.1-2.78,4.858-3.98,3.248-2.195,8.779,0,12.232.79a1.083,1.083,0,0,0,1.4-1.053c0-1.522-2.078-8.516-1.317-8.779,1.639-.732,8.34-2.663,8.34-4.945S101.974,66.972,100.16,66.328Zm-6.672,7.052a1.141,1.141,0,0,0-.79,1.375,39.826,39.826,0,0,1,2.634,7.257,19.665,19.665,0,0,0-8.779-1.2,12.261,12.261,0,0,0-4.916,2.107,59.312,59.312,0,0,1-6.467,4.8c.527-2.78,5.677-11.705,1.873-13.988-1.522-.878-4.009,0-5.531.263s-3.1.556-4.682.79c-4.243.644-7.316-.263-.966-2.692,3.746-1.434,8.984-1.668,12.115-4.419A15.509,15.509,0,0,0,82.222,58.9,39.944,39.944,0,0,0,92.99,66.621a43.253,43.253,0,0,0,6.584,1.873c5.15,1.346-5.619,4.741-5.97,4.887Z" transform="translate(88.953 129.412)" fill="#000000"/>
      <path id="Path_833" data-name="Path 833" d="M68.188,64.465a1.668,1.668,0,0,1-.966.322c-.176,0-.176-.673-.176-.819a.936.936,0,0,0-1.844,0,2.283,2.283,0,0,0,4.038,1.873C70.061,65.168,69.037,64.085,68.188,64.465Z" transform="translate(108.374 143.653)" fill="#000000"/>
      <path id="Path_834" data-name="Path 834" d="M71.818,60.578a3.248,3.248,0,0,1-1.288.234.761.761,0,1,0,0,1.522,4.243,4.243,0,0,0,1.9-.351C73.194,61.6,72.638,60.285,71.818,60.578Z" transform="translate(112.817 138.527)" fill="#000000"/>
      <path id="Path_835" data-name="Path 835" d="M66.69,59.572v.263a.732.732,0,1,0,1.463,0v-.263a.732.732,0,0,0-1.463,0Z" transform="translate(111.142 135.261)" fill="#000000"/>
      <path id="Path_836" data-name="Path 836" d="M65.269,60.623l-1.229.761a.849.849,0,0,0,.849,1.463c.439-.2.819-.5,1.258-.732C67.141,61.589,66.263,60.1,65.269,60.623Z" transform="translate(106.02 138.482)" fill="#000000"/>
      <path id="Path_837" data-name="Path 837" d="M67.437,61.34a1.2,1.2,0,1,0,1.013,1.185,1.2,1.2,0,0,0-1.013-1.185Z" transform="translate(110.659 140.077)" fill="#000000"/>
      <path id="Path_838" data-name="Path 838" d="M70.044,65.535a1.112,1.112,0,1,0-.932-1.1A1.112,1.112,0,0,0,70.044,65.535Z" transform="translate(111.549 143.93)" fill="#000000"/>
      <path id="Path_839" data-name="Path 839" d="M48.382,63.22a.7.7,0,1,0,.7.7.7.7,0,0,0-.7-.7Z" transform="translate(79.464 143.698)" fill="#000000"/>
      <path id="Path_840" data-name="Path 840" d="M52.2,63.987c-1.2-.878-2.634,1.053-1.258,1.873a1.756,1.756,0,0,0,2.283-.293.966.966,0,0,0-1.024-1.58Z" transform="translate(83.868 144.745)" fill="#000000"/>
      <path id="Path_841" data-name="Path 841" d="M63.02,55.158c.878-.293,1.024-1.727,0-1.931a6.965,6.965,0,0,0-1.756,0c-1.551,0-1.463,2.517,0,2.341A11.94,11.94,0,0,0,63.02,55.158Z" transform="translate(100.077 119.167)" fill="#000000"/>
      <path id="Path_842" data-name="Path 842" d="M81.038,59.282c-.732-.79-2.429-.468-2.283.819a1.727,1.727,0,0,0,1.083,1.639,1.58,1.58,0,0,0,1.727-.615,1.141,1.141,0,0,0-.527-1.844Z" transform="translate(130.11 135.288)" fill="#000000"/>
      <path id="Path_843" data-name="Path 843" d="M12.313,56.923a4.594,4.594,0,0,1-1.229.38c-1.434,0-1.375,2.312,0,2.165a4.975,4.975,0,0,0,1.99-.732C13.981,58.152,13.4,56.513,12.313,56.923Z" transform="translate(19.322 131.443)" fill="#000000"/>
      <path id="Path_844" data-name="Path 844" d="M23.443,61.176a2.078,2.078,0,0,1-.732,0c-1.522,0-1.522,2.4,0,2.312a2.078,2.078,0,0,0,1.844-.907.995.995,0,0,0-1.112-1.4Z" transform="translate(35.911 139.715)" fill="#000000"/>
      <path id="Path_845" data-name="Path 845" d="M28.53,60.355a.91.91,0,0,0-.761.263.995.995,0,0,0,0,1.727,1.58,1.58,0,0,0,1.961-.41.995.995,0,0,0-1.2-1.58Z" transform="translate(45.407 137.873)" fill="#000000"/>
      <path id="Path_846" data-name="Path 846" d="M27.694,57.049a.936.936,0,0,0-.673-1.171c-1.171-.263-1.668.732-1.814,1.7-.2,1.639,2.78,1.668,2.575,0v-.527Z" transform="translate(41.961 125.188)" fill="#000000"/>
    </g>
  </g>
</svg>
